<mxfile host="app.diagrams.net" modified="2021-12-13T17:43:20.046Z" agent="5.0 (Windows NT 10.0; Win64; x64) AppleWebKit/537.36 (KHTML, like Gecko) Chrome/96.0.4664.93 Safari/537.36" etag="lN_NvQaxAq5nVDYFc24p" version="15.9.4" type="github">
  <diagram id="QUdWsNunOd2s29OZKPNB" name="Page-1">
    <mxGraphModel dx="1802" dy="2559" grid="1" gridSize="10" guides="1" tooltips="1" connect="1" arrows="1" fold="1" page="1" pageScale="1" pageWidth="827" pageHeight="1169" math="0" shadow="0">
      <root>
        <mxCell id="0" />
        <mxCell id="1" parent="0" />
        <mxCell id="e-X5rbSb38zJNJmSNRHm-2" style="edgeStyle=orthogonalEdgeStyle;rounded=0;orthogonalLoop=1;jettySize=auto;html=1;startArrow=open;startFill=0;endArrow=none;endFill=0;dashed=1;" parent="1" source="e-X5rbSb38zJNJmSNRHm-3" target="e-X5rbSb38zJNJmSNRHm-144" edge="1">
          <mxGeometry relative="1" as="geometry" />
        </mxCell>
        <mxCell id="e-X5rbSb38zJNJmSNRHm-223" style="edgeStyle=orthogonalEdgeStyle;rounded=0;orthogonalLoop=1;jettySize=auto;html=1;endArrow=open;endFill=0;dashed=1;" parent="1" source="e-X5rbSb38zJNJmSNRHm-3" target="e-X5rbSb38zJNJmSNRHm-24" edge="1">
          <mxGeometry relative="1" as="geometry" />
        </mxCell>
        <mxCell id="e-X5rbSb38zJNJmSNRHm-3" value="GameObject" style="swimlane;fontStyle=2;align=center;verticalAlign=top;childLayout=stackLayout;horizontal=1;startSize=26;horizontalStack=0;resizeParent=1;resizeLast=0;collapsible=1;marginBottom=0;rounded=0;shadow=0;strokeWidth=1;" parent="1" vertex="1">
          <mxGeometry x="220" y="120" width="160" height="138" as="geometry">
            <mxRectangle x="230" y="140" width="160" height="26" as="alternateBounds" />
          </mxGeometry>
        </mxCell>
        <mxCell id="e-X5rbSb38zJNJmSNRHm-4" value="+ draw() : virtual void" style="text;align=left;verticalAlign=top;spacingLeft=4;spacingRight=4;overflow=hidden;rotatable=0;points=[[0,0.5],[1,0.5]];portConstraint=eastwest;" parent="e-X5rbSb38zJNJmSNRHm-3" vertex="1">
          <mxGeometry y="26" width="160" height="26" as="geometry" />
        </mxCell>
        <mxCell id="e-X5rbSb38zJNJmSNRHm-5" value="+ update() : virtual void" style="text;align=left;verticalAlign=top;spacingLeft=4;spacingRight=4;overflow=hidden;rotatable=0;points=[[0,0.5],[1,0.5]];portConstraint=eastwest;rounded=0;shadow=0;html=0;" parent="e-X5rbSb38zJNJmSNRHm-3" vertex="1">
          <mxGeometry y="52" width="160" height="26" as="geometry" />
        </mxCell>
        <mxCell id="e-X5rbSb38zJNJmSNRHm-6" value="+ clean() : virtual void" style="text;align=left;verticalAlign=top;spacingLeft=4;spacingRight=4;overflow=hidden;rotatable=0;points=[[0,0.5],[1,0.5]];portConstraint=eastwest;rounded=0;shadow=0;html=0;" parent="e-X5rbSb38zJNJmSNRHm-3" vertex="1">
          <mxGeometry y="78" width="160" height="26" as="geometry" />
        </mxCell>
        <mxCell id="e-X5rbSb38zJNJmSNRHm-7" value="" style="line;html=1;strokeWidth=1;align=left;verticalAlign=middle;spacingTop=-1;spacingLeft=3;spacingRight=3;rotatable=0;labelPosition=right;points=[];portConstraint=eastwest;" parent="e-X5rbSb38zJNJmSNRHm-3" vertex="1">
          <mxGeometry y="104" width="160" height="8" as="geometry" />
        </mxCell>
        <mxCell id="e-X5rbSb38zJNJmSNRHm-8" value="Purchase Parking Pass" style="text;align=left;verticalAlign=top;spacingLeft=4;spacingRight=4;overflow=hidden;rotatable=0;points=[[0,0.5],[1,0.5]];portConstraint=eastwest;" parent="e-X5rbSb38zJNJmSNRHm-3" vertex="1">
          <mxGeometry y="112" width="160" height="26" as="geometry" />
        </mxCell>
        <mxCell id="e-X5rbSb38zJNJmSNRHm-10" value="SDLGameObject" style="swimlane;fontStyle=0;align=center;verticalAlign=top;childLayout=stackLayout;horizontal=1;startSize=26;horizontalStack=0;resizeParent=1;resizeLast=0;collapsible=1;marginBottom=0;rounded=0;shadow=0;strokeWidth=1;" parent="1" vertex="1">
          <mxGeometry x="770" y="-370" width="435" height="658" as="geometry">
            <mxRectangle x="130" y="380" width="160" height="26" as="alternateBounds" />
          </mxGeometry>
        </mxCell>
        <mxCell id="e-X5rbSb38zJNJmSNRHm-11" value="+ draw() : virtual void" style="text;align=left;verticalAlign=top;spacingLeft=4;spacingRight=4;overflow=hidden;rotatable=0;points=[[0,0.5],[1,0.5]];portConstraint=eastwest;" parent="e-X5rbSb38zJNJmSNRHm-10" vertex="1">
          <mxGeometry y="26" width="435" height="26" as="geometry" />
        </mxCell>
        <mxCell id="e-X5rbSb38zJNJmSNRHm-12" value="+ update() : virtual void" style="text;align=left;verticalAlign=top;spacingLeft=4;spacingRight=4;overflow=hidden;rotatable=0;points=[[0,0.5],[1,0.5]];portConstraint=eastwest;" parent="e-X5rbSb38zJNJmSNRHm-10" vertex="1">
          <mxGeometry y="52" width="435" height="26" as="geometry" />
        </mxCell>
        <mxCell id="e-X5rbSb38zJNJmSNRHm-13" value="+ clean() : virtual void" style="text;align=left;verticalAlign=top;spacingLeft=4;spacingRight=4;overflow=hidden;rotatable=0;points=[[0,0.5],[1,0.5]];portConstraint=eastwest;" parent="e-X5rbSb38zJNJmSNRHm-10" vertex="1">
          <mxGeometry y="78" width="435" height="26" as="geometry" />
        </mxCell>
        <mxCell id="e-X5rbSb38zJNJmSNRHm-164" value="+ collision(SDLGameObject*) : virtual void" style="text;align=left;verticalAlign=top;spacingLeft=4;spacingRight=4;overflow=hidden;rotatable=0;points=[[0,0.5],[1,0.5]];portConstraint=eastwest;" parent="e-X5rbSb38zJNJmSNRHm-10" vertex="1">
          <mxGeometry y="104" width="435" height="26" as="geometry" />
        </mxCell>
        <mxCell id="e-X5rbSb38zJNJmSNRHm-166" value="+ collision(SDLGameObject&amp;,SDLGameObject&amp;) : virtual void" style="text;align=left;verticalAlign=top;spacingLeft=4;spacingRight=4;overflow=hidden;rotatable=0;points=[[0,0.5],[1,0.5]];portConstraint=eastwest;" parent="e-X5rbSb38zJNJmSNRHm-10" vertex="1">
          <mxGeometry y="130" width="435" height="26" as="geometry" />
        </mxCell>
        <mxCell id="e-X5rbSb38zJNJmSNRHm-172" value="+ check_collision(SDLGameObject&amp;,SDLGameObject&amp;) : virtual bool" style="text;align=left;verticalAlign=top;spacingLeft=4;spacingRight=4;overflow=hidden;rotatable=0;points=[[0,0.5],[1,0.5]];portConstraint=eastwest;" parent="e-X5rbSb38zJNJmSNRHm-10" vertex="1">
          <mxGeometry y="156" width="435" height="26" as="geometry" />
        </mxCell>
        <mxCell id="e-X5rbSb38zJNJmSNRHm-173" value="+ check_collision_X(SDLGameObject&amp;,SDLGameObject&amp;) : virtual bool" style="text;align=left;verticalAlign=top;spacingLeft=4;spacingRight=4;overflow=hidden;rotatable=0;points=[[0,0.5],[1,0.5]];portConstraint=eastwest;" parent="e-X5rbSb38zJNJmSNRHm-10" vertex="1">
          <mxGeometry y="182" width="435" height="26" as="geometry" />
        </mxCell>
        <mxCell id="e-X5rbSb38zJNJmSNRHm-174" value="+ check_collision_Y(SDLGameObject&amp;,SDLGameObject&amp;) : virtual bool" style="text;align=left;verticalAlign=top;spacingLeft=4;spacingRight=4;overflow=hidden;rotatable=0;points=[[0,0.5],[1,0.5]];portConstraint=eastwest;" parent="e-X5rbSb38zJNJmSNRHm-10" vertex="1">
          <mxGeometry y="208" width="435" height="26" as="geometry" />
        </mxCell>
        <mxCell id="e-X5rbSb38zJNJmSNRHm-175" value="+ check_collision_camera(SDLGameObject&amp;,SDLGameObject&amp;) : virtual bool" style="text;align=left;verticalAlign=top;spacingLeft=4;spacingRight=4;overflow=hidden;rotatable=0;points=[[0,0.5],[1,0.5]];portConstraint=eastwest;" parent="e-X5rbSb38zJNJmSNRHm-10" vertex="1">
          <mxGeometry y="234" width="435" height="26" as="geometry" />
        </mxCell>
        <mxCell id="e-X5rbSb38zJNJmSNRHm-177" value="+ move(SDLGameObject&amp;) : virtual void" style="text;align=left;verticalAlign=top;spacingLeft=4;spacingRight=4;overflow=hidden;rotatable=0;points=[[0,0.5],[1,0.5]];portConstraint=eastwest;" parent="e-X5rbSb38zJNJmSNRHm-10" vertex="1">
          <mxGeometry y="260" width="435" height="26" as="geometry" />
        </mxCell>
        <mxCell id="e-X5rbSb38zJNJmSNRHm-178" value="+ getTag() const : std::string " style="text;align=left;verticalAlign=top;spacingLeft=4;spacingRight=4;overflow=hidden;rotatable=0;points=[[0,0.5],[1,0.5]];portConstraint=eastwest;" parent="e-X5rbSb38zJNJmSNRHm-10" vertex="1">
          <mxGeometry y="286" width="435" height="26" as="geometry" />
        </mxCell>
        <mxCell id="e-X5rbSb38zJNJmSNRHm-179" value="+ GetActive() const : bool " style="text;align=left;verticalAlign=top;spacingLeft=4;spacingRight=4;overflow=hidden;rotatable=0;points=[[0,0.5],[1,0.5]];portConstraint=eastwest;" parent="e-X5rbSb38zJNJmSNRHm-10" vertex="1">
          <mxGeometry y="312" width="435" height="26" as="geometry" />
        </mxCell>
        <mxCell id="e-X5rbSb38zJNJmSNRHm-180" value="+ Active() : void" style="text;align=left;verticalAlign=top;spacingLeft=4;spacingRight=4;overflow=hidden;rotatable=0;points=[[0,0.5],[1,0.5]];portConstraint=eastwest;" parent="e-X5rbSb38zJNJmSNRHm-10" vertex="1">
          <mxGeometry y="338" width="435" height="26" as="geometry" />
        </mxCell>
        <mxCell id="e-X5rbSb38zJNJmSNRHm-181" value="+ InActive() : void" style="text;align=left;verticalAlign=top;spacingLeft=4;spacingRight=4;overflow=hidden;rotatable=0;points=[[0,0.5],[1,0.5]];portConstraint=eastwest;" parent="e-X5rbSb38zJNJmSNRHm-10" vertex="1">
          <mxGeometry y="364" width="435" height="26" as="geometry" />
        </mxCell>
        <mxCell id="e-X5rbSb38zJNJmSNRHm-14" value="" style="line;html=1;strokeWidth=1;align=left;verticalAlign=middle;spacingTop=-1;spacingLeft=3;spacingRight=3;rotatable=0;labelPosition=right;points=[];portConstraint=eastwest;" parent="e-X5rbSb38zJNJmSNRHm-10" vertex="1">
          <mxGeometry y="390" width="435" height="8" as="geometry" />
        </mxCell>
        <mxCell id="e-X5rbSb38zJNJmSNRHm-15" value="# m_position : Vector2D" style="text;align=left;verticalAlign=top;spacingLeft=4;spacingRight=4;overflow=hidden;rotatable=0;points=[[0,0.5],[1,0.5]];portConstraint=eastwest;" parent="e-X5rbSb38zJNJmSNRHm-10" vertex="1">
          <mxGeometry y="398" width="435" height="26" as="geometry" />
        </mxCell>
        <mxCell id="e-X5rbSb38zJNJmSNRHm-16" value="# m_velocity : Vector2D" style="text;align=left;verticalAlign=top;spacingLeft=4;spacingRight=4;overflow=hidden;rotatable=0;points=[[0,0.5],[1,0.5]];portConstraint=eastwest;" parent="e-X5rbSb38zJNJmSNRHm-10" vertex="1">
          <mxGeometry y="424" width="435" height="26" as="geometry" />
        </mxCell>
        <mxCell id="e-X5rbSb38zJNJmSNRHm-17" value="# m_acceleration : Vector2D" style="text;align=left;verticalAlign=top;spacingLeft=4;spacingRight=4;overflow=hidden;rotatable=0;points=[[0,0.5],[1,0.5]];portConstraint=eastwest;" parent="e-X5rbSb38zJNJmSNRHm-10" vertex="1">
          <mxGeometry y="450" width="435" height="26" as="geometry" />
        </mxCell>
        <mxCell id="e-X5rbSb38zJNJmSNRHm-18" value="# m_width : int" style="text;align=left;verticalAlign=top;spacingLeft=4;spacingRight=4;overflow=hidden;rotatable=0;points=[[0,0.5],[1,0.5]];portConstraint=eastwest;" parent="e-X5rbSb38zJNJmSNRHm-10" vertex="1">
          <mxGeometry y="476" width="435" height="26" as="geometry" />
        </mxCell>
        <mxCell id="e-X5rbSb38zJNJmSNRHm-19" value="# m_height : int" style="text;align=left;verticalAlign=top;spacingLeft=4;spacingRight=4;overflow=hidden;rotatable=0;points=[[0,0.5],[1,0.5]];portConstraint=eastwest;" parent="e-X5rbSb38zJNJmSNRHm-10" vertex="1">
          <mxGeometry y="502" width="435" height="26" as="geometry" />
        </mxCell>
        <mxCell id="e-X5rbSb38zJNJmSNRHm-20" value="# m_currentRow : int" style="text;align=left;verticalAlign=top;spacingLeft=4;spacingRight=4;overflow=hidden;rotatable=0;points=[[0,0.5],[1,0.5]];portConstraint=eastwest;" parent="e-X5rbSb38zJNJmSNRHm-10" vertex="1">
          <mxGeometry y="528" width="435" height="26" as="geometry" />
        </mxCell>
        <mxCell id="e-X5rbSb38zJNJmSNRHm-21" value="# m_currentFrame : int" style="text;align=left;verticalAlign=top;spacingLeft=4;spacingRight=4;overflow=hidden;rotatable=0;points=[[0,0.5],[1,0.5]];portConstraint=eastwest;" parent="e-X5rbSb38zJNJmSNRHm-10" vertex="1">
          <mxGeometry y="554" width="435" height="26" as="geometry" />
        </mxCell>
        <mxCell id="e-X5rbSb38zJNJmSNRHm-182" value="# m_textureID : std::string" style="text;align=left;verticalAlign=top;spacingLeft=4;spacingRight=4;overflow=hidden;rotatable=0;points=[[0,0.5],[1,0.5]];portConstraint=eastwest;" parent="e-X5rbSb38zJNJmSNRHm-10" vertex="1">
          <mxGeometry y="580" width="435" height="26" as="geometry" />
        </mxCell>
        <mxCell id="e-X5rbSb38zJNJmSNRHm-184" value="# m_tag : std::string" style="text;align=left;verticalAlign=top;spacingLeft=4;spacingRight=4;overflow=hidden;rotatable=0;points=[[0,0.5],[1,0.5]];portConstraint=eastwest;" parent="e-X5rbSb38zJNJmSNRHm-10" vertex="1">
          <mxGeometry y="606" width="435" height="26" as="geometry" />
        </mxCell>
        <mxCell id="e-X5rbSb38zJNJmSNRHm-22" value="# isActive : bool" style="text;align=left;verticalAlign=top;spacingLeft=4;spacingRight=4;overflow=hidden;rotatable=0;points=[[0,0.5],[1,0.5]];portConstraint=eastwest;" parent="e-X5rbSb38zJNJmSNRHm-10" vertex="1">
          <mxGeometry y="632" width="435" height="26" as="geometry" />
        </mxCell>
        <mxCell id="e-X5rbSb38zJNJmSNRHm-23" value="" style="endArrow=block;endSize=10;endFill=0;shadow=0;strokeWidth=1;rounded=0;edgeStyle=elbowEdgeStyle;elbow=vertical;" parent="1" source="e-X5rbSb38zJNJmSNRHm-10" target="e-X5rbSb38zJNJmSNRHm-3" edge="1">
          <mxGeometry width="160" relative="1" as="geometry">
            <mxPoint x="200" y="203" as="sourcePoint" />
            <mxPoint x="200" y="203" as="targetPoint" />
          </mxGeometry>
        </mxCell>
        <mxCell id="e-X5rbSb38zJNJmSNRHm-24" value="LoaderParams" style="swimlane;fontStyle=1;align=center;verticalAlign=top;childLayout=stackLayout;horizontal=1;startSize=26;horizontalStack=0;resizeParent=1;resizeParentMax=0;resizeLast=0;collapsible=1;marginBottom=0;" parent="1" vertex="1">
          <mxGeometry x="200" y="-360" width="200" height="346" as="geometry" />
        </mxCell>
        <mxCell id="e-X5rbSb38zJNJmSNRHm-25" value="+ getX() const : int" style="text;strokeColor=none;fillColor=none;align=left;verticalAlign=top;spacingLeft=4;spacingRight=4;overflow=hidden;rotatable=0;points=[[0,0.5],[1,0.5]];portConstraint=eastwest;" parent="e-X5rbSb38zJNJmSNRHm-24" vertex="1">
          <mxGeometry y="26" width="200" height="26" as="geometry" />
        </mxCell>
        <mxCell id="e-X5rbSb38zJNJmSNRHm-26" value="+ getY() const : int" style="text;strokeColor=none;fillColor=none;align=left;verticalAlign=top;spacingLeft=4;spacingRight=4;overflow=hidden;rotatable=0;points=[[0,0.5],[1,0.5]];portConstraint=eastwest;" parent="e-X5rbSb38zJNJmSNRHm-24" vertex="1">
          <mxGeometry y="52" width="200" height="26" as="geometry" />
        </mxCell>
        <mxCell id="e-X5rbSb38zJNJmSNRHm-27" value="+ getWidth() const : int" style="text;strokeColor=none;fillColor=none;align=left;verticalAlign=top;spacingLeft=4;spacingRight=4;overflow=hidden;rotatable=0;points=[[0,0.5],[1,0.5]];portConstraint=eastwest;" parent="e-X5rbSb38zJNJmSNRHm-24" vertex="1">
          <mxGeometry y="78" width="200" height="26" as="geometry" />
        </mxCell>
        <mxCell id="e-X5rbSb38zJNJmSNRHm-28" value="+ getHeight() const : int" style="text;strokeColor=none;fillColor=none;align=left;verticalAlign=top;spacingLeft=4;spacingRight=4;overflow=hidden;rotatable=0;points=[[0,0.5],[1,0.5]];portConstraint=eastwest;" parent="e-X5rbSb38zJNJmSNRHm-24" vertex="1">
          <mxGeometry y="104" width="200" height="26" as="geometry" />
        </mxCell>
        <mxCell id="e-X5rbSb38zJNJmSNRHm-29" value="+ getTexture() const : std::string" style="text;strokeColor=none;fillColor=none;align=left;verticalAlign=top;spacingLeft=4;spacingRight=4;overflow=hidden;rotatable=0;points=[[0,0.5],[1,0.5]];portConstraint=eastwest;" parent="e-X5rbSb38zJNJmSNRHm-24" vertex="1">
          <mxGeometry y="130" width="200" height="26" as="geometry" />
        </mxCell>
        <mxCell id="e-X5rbSb38zJNJmSNRHm-221" value="+ getTag() const : std::string " style="text;align=left;verticalAlign=top;spacingLeft=4;spacingRight=4;overflow=hidden;rotatable=0;points=[[0,0.5],[1,0.5]];portConstraint=eastwest;" parent="e-X5rbSb38zJNJmSNRHm-24" vertex="1">
          <mxGeometry y="156" width="200" height="26" as="geometry" />
        </mxCell>
        <mxCell id="e-X5rbSb38zJNJmSNRHm-30" value="" style="line;strokeWidth=1;fillColor=none;align=left;verticalAlign=middle;spacingTop=-1;spacingLeft=3;spacingRight=3;rotatable=0;labelPosition=right;points=[];portConstraint=eastwest;" parent="e-X5rbSb38zJNJmSNRHm-24" vertex="1">
          <mxGeometry y="182" width="200" height="8" as="geometry" />
        </mxCell>
        <mxCell id="e-X5rbSb38zJNJmSNRHm-31" value="- m_x : int" style="text;strokeColor=none;fillColor=none;align=left;verticalAlign=top;spacingLeft=4;spacingRight=4;overflow=hidden;rotatable=0;points=[[0,0.5],[1,0.5]];portConstraint=eastwest;" parent="e-X5rbSb38zJNJmSNRHm-24" vertex="1">
          <mxGeometry y="190" width="200" height="26" as="geometry" />
        </mxCell>
        <mxCell id="e-X5rbSb38zJNJmSNRHm-32" value="- m_y : int" style="text;strokeColor=none;fillColor=none;align=left;verticalAlign=top;spacingLeft=4;spacingRight=4;overflow=hidden;rotatable=0;points=[[0,0.5],[1,0.5]];portConstraint=eastwest;" parent="e-X5rbSb38zJNJmSNRHm-24" vertex="1">
          <mxGeometry y="216" width="200" height="26" as="geometry" />
        </mxCell>
        <mxCell id="e-X5rbSb38zJNJmSNRHm-33" value="- m_width : int" style="text;strokeColor=none;fillColor=none;align=left;verticalAlign=top;spacingLeft=4;spacingRight=4;overflow=hidden;rotatable=0;points=[[0,0.5],[1,0.5]];portConstraint=eastwest;" parent="e-X5rbSb38zJNJmSNRHm-24" vertex="1">
          <mxGeometry y="242" width="200" height="26" as="geometry" />
        </mxCell>
        <mxCell id="e-X5rbSb38zJNJmSNRHm-34" value="- m_height : int" style="text;strokeColor=none;fillColor=none;align=left;verticalAlign=top;spacingLeft=4;spacingRight=4;overflow=hidden;rotatable=0;points=[[0,0.5],[1,0.5]];portConstraint=eastwest;" parent="e-X5rbSb38zJNJmSNRHm-24" vertex="1">
          <mxGeometry y="268" width="200" height="26" as="geometry" />
        </mxCell>
        <mxCell id="e-X5rbSb38zJNJmSNRHm-35" value="- m_textureID : std::string" style="text;strokeColor=none;fillColor=none;align=left;verticalAlign=top;spacingLeft=4;spacingRight=4;overflow=hidden;rotatable=0;points=[[0,0.5],[1,0.5]];portConstraint=eastwest;" parent="e-X5rbSb38zJNJmSNRHm-24" vertex="1">
          <mxGeometry y="294" width="200" height="26" as="geometry" />
        </mxCell>
        <mxCell id="e-X5rbSb38zJNJmSNRHm-222" value="# m_tag : std::string" style="text;align=left;verticalAlign=top;spacingLeft=4;spacingRight=4;overflow=hidden;rotatable=0;points=[[0,0.5],[1,0.5]];portConstraint=eastwest;" parent="e-X5rbSb38zJNJmSNRHm-24" vertex="1">
          <mxGeometry y="320" width="200" height="26" as="geometry" />
        </mxCell>
        <mxCell id="e-X5rbSb38zJNJmSNRHm-36" style="edgeStyle=orthogonalEdgeStyle;rounded=0;orthogonalLoop=1;jettySize=auto;html=1;" parent="1" target="e-X5rbSb38zJNJmSNRHm-10" edge="1">
          <mxGeometry relative="1" as="geometry">
            <mxPoint x="300" y="710" as="targetPoint" />
            <Array as="points">
              <mxPoint x="300" y="740" />
              <mxPoint x="988" y="740" />
            </Array>
            <mxPoint x="300" y="1139.9999999999995" as="sourcePoint" />
          </mxGeometry>
        </mxCell>
        <mxCell id="e-X5rbSb38zJNJmSNRHm-37" style="edgeStyle=orthogonalEdgeStyle;rounded=0;orthogonalLoop=1;jettySize=auto;html=1;dashed=1;endArrow=open;endFill=0;" parent="1" target="e-X5rbSb38zJNJmSNRHm-50" edge="1">
          <mxGeometry relative="1" as="geometry">
            <Array as="points">
              <mxPoint x="540" y="1200" />
              <mxPoint x="540" y="1200" />
            </Array>
            <mxPoint x="395" y="1200.0000000000005" as="sourcePoint" />
          </mxGeometry>
        </mxCell>
        <mxCell id="e-X5rbSb38zJNJmSNRHm-50" value="InputHandler" style="swimlane;fontStyle=0;align=center;verticalAlign=top;childLayout=stackLayout;horizontal=1;startSize=26;horizontalStack=0;resizeParent=1;resizeLast=0;collapsible=1;marginBottom=0;rounded=0;shadow=0;strokeWidth=1;" parent="1" vertex="1">
          <mxGeometry x="620" y="1090" width="250" height="400" as="geometry">
            <mxRectangle x="130" y="380" width="160" height="26" as="alternateBounds" />
          </mxGeometry>
        </mxCell>
        <mxCell id="e-X5rbSb38zJNJmSNRHm-51" value="+ Instance() : static InputHandler*" style="text;align=left;verticalAlign=top;spacingLeft=4;spacingRight=4;overflow=hidden;rotatable=0;points=[[0,0.5],[1,0.5]];portConstraint=eastwest;" parent="e-X5rbSb38zJNJmSNRHm-50" vertex="1">
          <mxGeometry y="26" width="250" height="26" as="geometry" />
        </mxCell>
        <mxCell id="e-X5rbSb38zJNJmSNRHm-52" value="+ isKeyDown(SDL_Scancode) : bool" style="text;align=left;verticalAlign=top;spacingLeft=4;spacingRight=4;overflow=hidden;rotatable=0;points=[[0,0.5],[1,0.5]];portConstraint=eastwest;" parent="e-X5rbSb38zJNJmSNRHm-50" vertex="1">
          <mxGeometry y="52" width="250" height="26" as="geometry" />
        </mxCell>
        <mxCell id="e-X5rbSb38zJNJmSNRHm-53" value="+ update() :  void" style="text;align=left;verticalAlign=top;spacingLeft=4;spacingRight=4;overflow=hidden;rotatable=0;points=[[0,0.5],[1,0.5]];portConstraint=eastwest;" parent="e-X5rbSb38zJNJmSNRHm-50" vertex="1">
          <mxGeometry y="78" width="250" height="26" as="geometry" />
        </mxCell>
        <mxCell id="e-X5rbSb38zJNJmSNRHm-54" value="+ clean() :  void" style="text;align=left;verticalAlign=top;spacingLeft=4;spacingRight=4;overflow=hidden;rotatable=0;points=[[0,0.5],[1,0.5]];portConstraint=eastwest;" parent="e-X5rbSb38zJNJmSNRHm-50" vertex="1">
          <mxGeometry y="104" width="250" height="26" as="geometry" />
        </mxCell>
        <mxCell id="e-X5rbSb38zJNJmSNRHm-55" value="+ getMouseButtonState(int) const : bool" style="text;align=left;verticalAlign=top;spacingLeft=4;spacingRight=4;overflow=hidden;rotatable=0;points=[[0,0.5],[1,0.5]];portConstraint=eastwest;" parent="e-X5rbSb38zJNJmSNRHm-50" vertex="1">
          <mxGeometry y="130" width="250" height="26" as="geometry" />
        </mxCell>
        <mxCell id="e-X5rbSb38zJNJmSNRHm-56" value="+ onMouseMove(SDL_Event) : void" style="text;align=left;verticalAlign=top;spacingLeft=4;spacingRight=4;overflow=hidden;rotatable=0;points=[[0,0.5],[1,0.5]];portConstraint=eastwest;" parent="e-X5rbSb38zJNJmSNRHm-50" vertex="1">
          <mxGeometry y="156" width="250" height="26" as="geometry" />
        </mxCell>
        <mxCell id="e-X5rbSb38zJNJmSNRHm-57" value="+ onMouseButtonDown(SDL_Event) : void" style="text;align=left;verticalAlign=top;spacingLeft=4;spacingRight=4;overflow=hidden;rotatable=0;points=[[0,0.5],[1,0.5]];portConstraint=eastwest;" parent="e-X5rbSb38zJNJmSNRHm-50" vertex="1">
          <mxGeometry y="182" width="250" height="26" as="geometry" />
        </mxCell>
        <mxCell id="e-X5rbSb38zJNJmSNRHm-58" value="+ onMouseButtonUp(SDL_Event) : void" style="text;align=left;verticalAlign=top;spacingLeft=4;spacingRight=4;overflow=hidden;rotatable=0;points=[[0,0.5],[1,0.5]];portConstraint=eastwest;" parent="e-X5rbSb38zJNJmSNRHm-50" vertex="1">
          <mxGeometry y="208" width="250" height="26" as="geometry" />
        </mxCell>
        <mxCell id="e-X5rbSb38zJNJmSNRHm-59" value="+ onKeyDown() : void" style="text;align=left;verticalAlign=top;spacingLeft=4;spacingRight=4;overflow=hidden;rotatable=0;points=[[0,0.5],[1,0.5]];portConstraint=eastwest;" parent="e-X5rbSb38zJNJmSNRHm-50" vertex="1">
          <mxGeometry y="234" width="250" height="26" as="geometry" />
        </mxCell>
        <mxCell id="e-X5rbSb38zJNJmSNRHm-60" value="+ onKeyUp() : void" style="text;align=left;verticalAlign=top;spacingLeft=4;spacingRight=4;overflow=hidden;rotatable=0;points=[[0,0.5],[1,0.5]];portConstraint=eastwest;" parent="e-X5rbSb38zJNJmSNRHm-50" vertex="1">
          <mxGeometry y="260" width="250" height="26" as="geometry" />
        </mxCell>
        <mxCell id="e-X5rbSb38zJNJmSNRHm-61" value="" style="line;html=1;strokeWidth=1;align=left;verticalAlign=middle;spacingTop=-1;spacingLeft=3;spacingRight=3;rotatable=0;labelPosition=right;points=[];portConstraint=eastwest;" parent="e-X5rbSb38zJNJmSNRHm-50" vertex="1">
          <mxGeometry y="286" width="250" height="8" as="geometry" />
        </mxCell>
        <mxCell id="e-X5rbSb38zJNJmSNRHm-62" value="- s_pInstance : static InputHandler*" style="text;align=left;verticalAlign=top;spacingLeft=4;spacingRight=4;overflow=hidden;rotatable=0;points=[[0,0.5],[1,0.5]];portConstraint=eastwest;" parent="e-X5rbSb38zJNJmSNRHm-50" vertex="1">
          <mxGeometry y="294" width="250" height="26" as="geometry" />
        </mxCell>
        <mxCell id="e-X5rbSb38zJNJmSNRHm-63" value="- m_keystates : const Uint8*" style="text;align=left;verticalAlign=top;spacingLeft=4;spacingRight=4;overflow=hidden;rotatable=0;points=[[0,0.5],[1,0.5]];portConstraint=eastwest;" parent="e-X5rbSb38zJNJmSNRHm-50" vertex="1">
          <mxGeometry y="320" width="250" height="26" as="geometry" />
        </mxCell>
        <mxCell id="e-X5rbSb38zJNJmSNRHm-64" value="- m_mouseButtonStates : std::vector&lt;bool&gt;" style="text;align=left;verticalAlign=top;spacingLeft=4;spacingRight=4;overflow=hidden;rotatable=0;points=[[0,0.5],[1,0.5]];portConstraint=eastwest;" parent="e-X5rbSb38zJNJmSNRHm-50" vertex="1">
          <mxGeometry y="346" width="250" height="26" as="geometry" />
        </mxCell>
        <mxCell id="e-X5rbSb38zJNJmSNRHm-65" value="- m_mousePosition : Vector2D*" style="text;align=left;verticalAlign=top;spacingLeft=4;spacingRight=4;overflow=hidden;rotatable=0;points=[[0,0.5],[1,0.5]];portConstraint=eastwest;" parent="e-X5rbSb38zJNJmSNRHm-50" vertex="1">
          <mxGeometry y="372" width="250" height="26" as="geometry" />
        </mxCell>
        <mxCell id="e-X5rbSb38zJNJmSNRHm-66" value="&lt;enumeration&gt;&#xa;mouse_buttons" style="swimlane;fontStyle=0;childLayout=stackLayout;horizontal=1;startSize=26;fillColor=none;horizontalStack=0;resizeParent=1;resizeParentMax=0;resizeLast=0;collapsible=1;marginBottom=0;" parent="1" vertex="1">
          <mxGeometry x="880" y="1090" width="140" height="104" as="geometry" />
        </mxCell>
        <mxCell id="e-X5rbSb38zJNJmSNRHm-67" value="LEFT" style="text;strokeColor=none;fillColor=none;align=left;verticalAlign=top;spacingLeft=4;spacingRight=4;overflow=hidden;rotatable=0;points=[[0,0.5],[1,0.5]];portConstraint=eastwest;" parent="e-X5rbSb38zJNJmSNRHm-66" vertex="1">
          <mxGeometry y="26" width="140" height="26" as="geometry" />
        </mxCell>
        <mxCell id="e-X5rbSb38zJNJmSNRHm-68" value="MIDDLE" style="text;strokeColor=none;fillColor=none;align=left;verticalAlign=top;spacingLeft=4;spacingRight=4;overflow=hidden;rotatable=0;points=[[0,0.5],[1,0.5]];portConstraint=eastwest;" parent="e-X5rbSb38zJNJmSNRHm-66" vertex="1">
          <mxGeometry y="52" width="140" height="26" as="geometry" />
        </mxCell>
        <mxCell id="e-X5rbSb38zJNJmSNRHm-69" value="RIGHT" style="text;strokeColor=none;fillColor=none;align=left;verticalAlign=top;spacingLeft=4;spacingRight=4;overflow=hidden;rotatable=0;points=[[0,0.5],[1,0.5]];portConstraint=eastwest;" parent="e-X5rbSb38zJNJmSNRHm-66" vertex="1">
          <mxGeometry y="78" width="140" height="26" as="geometry" />
        </mxCell>
        <mxCell id="e-X5rbSb38zJNJmSNRHm-70" style="edgeStyle=orthogonalEdgeStyle;rounded=0;orthogonalLoop=1;jettySize=auto;html=1;dashed=1;endArrow=none;endFill=0;startArrow=open;startFill=0;" parent="1" source="e-X5rbSb38zJNJmSNRHm-71" target="e-X5rbSb38zJNJmSNRHm-10" edge="1">
          <mxGeometry relative="1" as="geometry" />
        </mxCell>
        <mxCell id="e-X5rbSb38zJNJmSNRHm-71" value="Vector2D" style="swimlane;fontStyle=1;align=center;verticalAlign=top;childLayout=stackLayout;horizontal=1;startSize=26;horizontalStack=0;resizeParent=1;resizeParentMax=0;resizeLast=0;collapsible=1;marginBottom=0;" parent="1" vertex="1">
          <mxGeometry x="360" y="-840" width="350" height="450" as="geometry" />
        </mxCell>
        <mxCell id="e-X5rbSb38zJNJmSNRHm-72" value="+ getX() const : float" style="text;strokeColor=none;fillColor=none;align=left;verticalAlign=top;spacingLeft=4;spacingRight=4;overflow=hidden;rotatable=0;points=[[0,0.5],[1,0.5]];portConstraint=eastwest;" parent="e-X5rbSb38zJNJmSNRHm-71" vertex="1">
          <mxGeometry y="26" width="350" height="26" as="geometry" />
        </mxCell>
        <mxCell id="e-X5rbSb38zJNJmSNRHm-73" value="+ getY() const : float" style="text;strokeColor=none;fillColor=none;align=left;verticalAlign=top;spacingLeft=4;spacingRight=4;overflow=hidden;rotatable=0;points=[[0,0.5],[1,0.5]];portConstraint=eastwest;" parent="e-X5rbSb38zJNJmSNRHm-71" vertex="1">
          <mxGeometry y="52" width="350" height="26" as="geometry" />
        </mxCell>
        <mxCell id="e-X5rbSb38zJNJmSNRHm-74" value="+ setY() : void" style="text;strokeColor=none;fillColor=none;align=left;verticalAlign=top;spacingLeft=4;spacingRight=4;overflow=hidden;rotatable=0;points=[[0,0.5],[1,0.5]];portConstraint=eastwest;" parent="e-X5rbSb38zJNJmSNRHm-71" vertex="1">
          <mxGeometry y="78" width="350" height="26" as="geometry" />
        </mxCell>
        <mxCell id="e-X5rbSb38zJNJmSNRHm-75" value="+ setY() : void" style="text;strokeColor=none;fillColor=none;align=left;verticalAlign=top;spacingLeft=4;spacingRight=4;overflow=hidden;rotatable=0;points=[[0,0.5],[1,0.5]];portConstraint=eastwest;" parent="e-X5rbSb38zJNJmSNRHm-71" vertex="1">
          <mxGeometry y="104" width="350" height="26" as="geometry" />
        </mxCell>
        <mxCell id="e-X5rbSb38zJNJmSNRHm-76" value="+ length() : float" style="text;strokeColor=none;fillColor=none;align=left;verticalAlign=top;spacingLeft=4;spacingRight=4;overflow=hidden;rotatable=0;points=[[0,0.5],[1,0.5]];portConstraint=eastwest;" parent="e-X5rbSb38zJNJmSNRHm-71" vertex="1">
          <mxGeometry y="130" width="350" height="26" as="geometry" />
        </mxCell>
        <mxCell id="e-X5rbSb38zJNJmSNRHm-77" value="+ operator+(const Vector2D&amp;) : Vector2D" style="text;strokeColor=none;fillColor=none;align=left;verticalAlign=top;spacingLeft=4;spacingRight=4;overflow=hidden;rotatable=0;points=[[0,0.5],[1,0.5]];portConstraint=eastwest;" parent="e-X5rbSb38zJNJmSNRHm-71" vertex="1">
          <mxGeometry y="156" width="350" height="26" as="geometry" />
        </mxCell>
        <mxCell id="e-X5rbSb38zJNJmSNRHm-78" value="+ operator-(const Vector2D&amp;) : Vector2D" style="text;strokeColor=none;fillColor=none;align=left;verticalAlign=top;spacingLeft=4;spacingRight=4;overflow=hidden;rotatable=0;points=[[0,0.5],[1,0.5]];portConstraint=eastwest;" parent="e-X5rbSb38zJNJmSNRHm-71" vertex="1">
          <mxGeometry y="182" width="350" height="26" as="geometry" />
        </mxCell>
        <mxCell id="e-X5rbSb38zJNJmSNRHm-79" value="+ operator*(float) : Vector2D" style="text;strokeColor=none;fillColor=none;align=left;verticalAlign=top;spacingLeft=4;spacingRight=4;overflow=hidden;rotatable=0;points=[[0,0.5],[1,0.5]];portConstraint=eastwest;" parent="e-X5rbSb38zJNJmSNRHm-71" vertex="1">
          <mxGeometry y="208" width="350" height="26" as="geometry" />
        </mxCell>
        <mxCell id="e-X5rbSb38zJNJmSNRHm-80" value="+ operator/(float) : Vector2D" style="text;strokeColor=none;fillColor=none;align=left;verticalAlign=top;spacingLeft=4;spacingRight=4;overflow=hidden;rotatable=0;points=[[0,0.5],[1,0.5]];portConstraint=eastwest;" parent="e-X5rbSb38zJNJmSNRHm-71" vertex="1">
          <mxGeometry y="234" width="350" height="26" as="geometry" />
        </mxCell>
        <mxCell id="e-X5rbSb38zJNJmSNRHm-81" value="+ operator*=(float) : Vector2D&amp;" style="text;strokeColor=none;fillColor=none;align=left;verticalAlign=top;spacingLeft=4;spacingRight=4;overflow=hidden;rotatable=0;points=[[0,0.5],[1,0.5]];portConstraint=eastwest;" parent="e-X5rbSb38zJNJmSNRHm-71" vertex="1">
          <mxGeometry y="260" width="350" height="26" as="geometry" />
        </mxCell>
        <mxCell id="e-X5rbSb38zJNJmSNRHm-82" value="+ operator/=(float) : Vector2D&amp;" style="text;strokeColor=none;fillColor=none;align=left;verticalAlign=top;spacingLeft=4;spacingRight=4;overflow=hidden;rotatable=0;points=[[0,0.5],[1,0.5]];portConstraint=eastwest;" parent="e-X5rbSb38zJNJmSNRHm-71" vertex="1">
          <mxGeometry y="286" width="350" height="26" as="geometry" />
        </mxCell>
        <mxCell id="e-X5rbSb38zJNJmSNRHm-83" value="+ normalize() : void" style="text;strokeColor=none;fillColor=none;align=left;verticalAlign=top;spacingLeft=4;spacingRight=4;overflow=hidden;rotatable=0;points=[[0,0.5],[1,0.5]];portConstraint=eastwest;" parent="e-X5rbSb38zJNJmSNRHm-71" vertex="1">
          <mxGeometry y="312" width="350" height="26" as="geometry" />
        </mxCell>
        <mxCell id="e-X5rbSb38zJNJmSNRHm-84" value="+ operator+=(Vector2D&amp;, const Vector2D&amp;) : friend Vector2D&amp;" style="text;strokeColor=none;fillColor=none;align=left;verticalAlign=top;spacingLeft=4;spacingRight=4;overflow=hidden;rotatable=0;points=[[0,0.5],[1,0.5]];portConstraint=eastwest;" parent="e-X5rbSb38zJNJmSNRHm-71" vertex="1">
          <mxGeometry y="338" width="350" height="26" as="geometry" />
        </mxCell>
        <mxCell id="e-X5rbSb38zJNJmSNRHm-85" value="+ operator-=(Vector2D&amp;, const Vector2D&amp;) : friend Vector2D&amp;" style="text;strokeColor=none;fillColor=none;align=left;verticalAlign=top;spacingLeft=4;spacingRight=4;overflow=hidden;rotatable=0;points=[[0,0.5],[1,0.5]];portConstraint=eastwest;" parent="e-X5rbSb38zJNJmSNRHm-71" vertex="1">
          <mxGeometry y="364" width="350" height="26" as="geometry" />
        </mxCell>
        <mxCell id="e-X5rbSb38zJNJmSNRHm-86" value="" style="line;strokeWidth=1;fillColor=none;align=left;verticalAlign=middle;spacingTop=-1;spacingLeft=3;spacingRight=3;rotatable=0;labelPosition=right;points=[];portConstraint=eastwest;" parent="e-X5rbSb38zJNJmSNRHm-71" vertex="1">
          <mxGeometry y="390" width="350" height="8" as="geometry" />
        </mxCell>
        <mxCell id="e-X5rbSb38zJNJmSNRHm-87" value="- m_x : float" style="text;strokeColor=none;fillColor=none;align=left;verticalAlign=top;spacingLeft=4;spacingRight=4;overflow=hidden;rotatable=0;points=[[0,0.5],[1,0.5]];portConstraint=eastwest;" parent="e-X5rbSb38zJNJmSNRHm-71" vertex="1">
          <mxGeometry y="398" width="350" height="26" as="geometry" />
        </mxCell>
        <mxCell id="e-X5rbSb38zJNJmSNRHm-88" value="- m_y : float" style="text;strokeColor=none;fillColor=none;align=left;verticalAlign=top;spacingLeft=4;spacingRight=4;overflow=hidden;rotatable=0;points=[[0,0.5],[1,0.5]];portConstraint=eastwest;" parent="e-X5rbSb38zJNJmSNRHm-71" vertex="1">
          <mxGeometry y="424" width="350" height="26" as="geometry" />
        </mxCell>
        <mxCell id="e-X5rbSb38zJNJmSNRHm-89" value="TextureManger" style="swimlane;fontStyle=1;align=center;verticalAlign=top;childLayout=stackLayout;horizontal=1;startSize=26;horizontalStack=0;resizeParent=1;resizeParentMax=0;resizeLast=0;collapsible=1;marginBottom=0;" parent="1" vertex="1">
          <mxGeometry x="-360" y="330" width="520" height="242" as="geometry" />
        </mxCell>
        <mxCell id="e-X5rbSb38zJNJmSNRHm-90" value="+ Instance() : static TextureManager*" style="text;strokeColor=none;fillColor=none;align=left;verticalAlign=top;spacingLeft=4;spacingRight=4;overflow=hidden;rotatable=0;points=[[0,0.5],[1,0.5]];portConstraint=eastwest;" parent="e-X5rbSb38zJNJmSNRHm-89" vertex="1">
          <mxGeometry y="26" width="520" height="26" as="geometry" />
        </mxCell>
        <mxCell id="e-X5rbSb38zJNJmSNRHm-91" value="+ load(std::string, std::string, SDL_Renderer*) : bool" style="text;strokeColor=none;fillColor=none;align=left;verticalAlign=top;spacingLeft=4;spacingRight=4;overflow=hidden;rotatable=0;points=[[0,0.5],[1,0.5]];portConstraint=eastwest;" parent="e-X5rbSb38zJNJmSNRHm-89" vertex="1">
          <mxGeometry y="52" width="520" height="26" as="geometry" />
        </mxCell>
        <mxCell id="e-X5rbSb38zJNJmSNRHm-163" value="+ loadText(std::string, std::string, SDL_Renderer*,TTF_Font*,SDL_Color) : bool" style="text;strokeColor=none;fillColor=none;align=left;verticalAlign=top;spacingLeft=4;spacingRight=4;overflow=hidden;rotatable=0;points=[[0,0.5],[1,0.5]];portConstraint=eastwest;" parent="e-X5rbSb38zJNJmSNRHm-89" vertex="1">
          <mxGeometry y="78" width="520" height="26" as="geometry" />
        </mxCell>
        <mxCell id="e-X5rbSb38zJNJmSNRHm-92" value="+ draw(std::string, int ,int , int ,int , SDL_Renderer*, SDL_RendererFlip) : void" style="text;strokeColor=none;fillColor=none;align=left;verticalAlign=top;spacingLeft=4;spacingRight=4;overflow=hidden;rotatable=0;points=[[0,0.5],[1,0.5]];portConstraint=eastwest;" parent="e-X5rbSb38zJNJmSNRHm-89" vertex="1">
          <mxGeometry y="104" width="520" height="26" as="geometry" />
        </mxCell>
        <mxCell id="e-X5rbSb38zJNJmSNRHm-93" value="+ drawFrame(std::string, int, int , int, int, int, int, SDL_Renderer*, SDL_RendererFlip) : void" style="text;strokeColor=none;fillColor=none;align=left;verticalAlign=top;spacingLeft=4;spacingRight=4;overflow=hidden;rotatable=0;points=[[0,0.5],[1,0.5]];portConstraint=eastwest;" parent="e-X5rbSb38zJNJmSNRHm-89" vertex="1">
          <mxGeometry y="130" width="520" height="26" as="geometry" />
        </mxCell>
        <mxCell id="e-X5rbSb38zJNJmSNRHm-94" value="+ drawAngle(std::string, int, int , int, int, int, int, int, SDL_Renderer*, SDL_RendererFlip) : void" style="text;strokeColor=none;fillColor=none;align=left;verticalAlign=top;spacingLeft=4;spacingRight=4;overflow=hidden;rotatable=0;points=[[0,0.5],[1,0.5]];portConstraint=eastwest;" parent="e-X5rbSb38zJNJmSNRHm-89" vertex="1">
          <mxGeometry y="156" width="520" height="26" as="geometry" />
        </mxCell>
        <mxCell id="e-X5rbSb38zJNJmSNRHm-95" value="" style="line;strokeWidth=1;fillColor=none;align=left;verticalAlign=middle;spacingTop=-1;spacingLeft=3;spacingRight=3;rotatable=0;labelPosition=right;points=[];portConstraint=eastwest;" parent="e-X5rbSb38zJNJmSNRHm-89" vertex="1">
          <mxGeometry y="182" width="520" height="8" as="geometry" />
        </mxCell>
        <mxCell id="e-X5rbSb38zJNJmSNRHm-96" value="- m_textureMap : std::map&lt;std::string, SDL_Texture*&gt;" style="text;strokeColor=none;fillColor=none;align=left;verticalAlign=top;spacingLeft=4;spacingRight=4;overflow=hidden;rotatable=0;points=[[0,0.5],[1,0.5]];portConstraint=eastwest;" parent="e-X5rbSb38zJNJmSNRHm-89" vertex="1">
          <mxGeometry y="190" width="520" height="26" as="geometry" />
        </mxCell>
        <mxCell id="e-X5rbSb38zJNJmSNRHm-97" value="- s_pInstance : static TextureManager*" style="text;strokeColor=none;fillColor=none;align=left;verticalAlign=top;spacingLeft=4;spacingRight=4;overflow=hidden;rotatable=0;points=[[0,0.5],[1,0.5]];portConstraint=eastwest;" parent="e-X5rbSb38zJNJmSNRHm-89" vertex="1">
          <mxGeometry y="216" width="520" height="26" as="geometry" />
        </mxCell>
        <mxCell id="e-X5rbSb38zJNJmSNRHm-144" value="Game" style="swimlane;fontStyle=1;align=center;verticalAlign=top;childLayout=stackLayout;horizontal=1;startSize=26;horizontalStack=0;resizeParent=1;resizeParentMax=0;resizeLast=0;collapsible=1;marginBottom=0;" parent="1" vertex="1">
          <mxGeometry x="-413" y="-510" width="383" height="684" as="geometry" />
        </mxCell>
        <mxCell id="e-X5rbSb38zJNJmSNRHm-145" value="+ Instance() : static Game*" style="text;strokeColor=none;fillColor=none;align=left;verticalAlign=top;spacingLeft=4;spacingRight=4;overflow=hidden;rotatable=0;points=[[0,0.5],[1,0.5]];portConstraint=eastwest;" parent="e-X5rbSb38zJNJmSNRHm-144" vertex="1">
          <mxGeometry y="26" width="383" height="26" as="geometry" />
        </mxCell>
        <mxCell id="e-X5rbSb38zJNJmSNRHm-146" value="+ Init(const char*, int, int,int, int, int) : bool" style="text;strokeColor=none;fillColor=none;align=left;verticalAlign=top;spacingLeft=4;spacingRight=4;overflow=hidden;rotatable=0;points=[[0,0.5],[1,0.5]];portConstraint=eastwest;" parent="e-X5rbSb38zJNJmSNRHm-144" vertex="1">
          <mxGeometry y="52" width="383" height="26" as="geometry" />
        </mxCell>
        <mxCell id="e-X5rbSb38zJNJmSNRHm-147" value="+ render() : void" style="text;strokeColor=none;fillColor=none;align=left;verticalAlign=top;spacingLeft=4;spacingRight=4;overflow=hidden;rotatable=0;points=[[0,0.5],[1,0.5]];portConstraint=eastwest;" parent="e-X5rbSb38zJNJmSNRHm-144" vertex="1">
          <mxGeometry y="78" width="383" height="26" as="geometry" />
        </mxCell>
        <mxCell id="e-X5rbSb38zJNJmSNRHm-148" value="+ Update() : void" style="text;strokeColor=none;fillColor=none;align=left;verticalAlign=top;spacingLeft=4;spacingRight=4;overflow=hidden;rotatable=0;points=[[0,0.5],[1,0.5]];portConstraint=eastwest;" parent="e-X5rbSb38zJNJmSNRHm-144" vertex="1">
          <mxGeometry y="104" width="383" height="26" as="geometry" />
        </mxCell>
        <mxCell id="e-X5rbSb38zJNJmSNRHm-149" value="+ running() : bool" style="text;strokeColor=none;fillColor=none;align=left;verticalAlign=top;spacingLeft=4;spacingRight=4;overflow=hidden;rotatable=0;points=[[0,0.5],[1,0.5]];portConstraint=eastwest;" parent="e-X5rbSb38zJNJmSNRHm-144" vertex="1">
          <mxGeometry y="130" width="383" height="26" as="geometry" />
        </mxCell>
        <mxCell id="e-X5rbSb38zJNJmSNRHm-150" value="+ handleEvents() : void" style="text;strokeColor=none;fillColor=none;align=left;verticalAlign=top;spacingLeft=4;spacingRight=4;overflow=hidden;rotatable=0;points=[[0,0.5],[1,0.5]];portConstraint=eastwest;" parent="e-X5rbSb38zJNJmSNRHm-144" vertex="1">
          <mxGeometry y="156" width="383" height="26" as="geometry" />
        </mxCell>
        <mxCell id="e-X5rbSb38zJNJmSNRHm-151" value="+ clean() : void" style="text;strokeColor=none;fillColor=none;align=left;verticalAlign=top;spacingLeft=4;spacingRight=4;overflow=hidden;rotatable=0;points=[[0,0.5],[1,0.5]];portConstraint=eastwest;" parent="e-X5rbSb38zJNJmSNRHm-144" vertex="1">
          <mxGeometry y="182" width="383" height="26" as="geometry" />
        </mxCell>
        <mxCell id="e-X5rbSb38zJNJmSNRHm-152" value="+ quit() : void" style="text;strokeColor=none;fillColor=none;align=left;verticalAlign=top;spacingLeft=4;spacingRight=4;overflow=hidden;rotatable=0;points=[[0,0.5],[1,0.5]];portConstraint=eastwest;" parent="e-X5rbSb38zJNJmSNRHm-144" vertex="1">
          <mxGeometry y="208" width="383" height="26" as="geometry" />
        </mxCell>
        <mxCell id="e-X5rbSb38zJNJmSNRHm-153" value="+ getRenderer() const : SDL_Renderer*" style="text;strokeColor=none;fillColor=none;align=left;verticalAlign=top;spacingLeft=4;spacingRight=4;overflow=hidden;rotatable=0;points=[[0,0.5],[1,0.5]];portConstraint=eastwest;" parent="e-X5rbSb38zJNJmSNRHm-144" vertex="1">
          <mxGeometry y="234" width="383" height="26" as="geometry" />
        </mxCell>
        <mxCell id="e-X5rbSb38zJNJmSNRHm-236" value="+ getFont() const : TTF_Font*" style="text;strokeColor=none;fillColor=none;align=left;verticalAlign=top;spacingLeft=4;spacingRight=4;overflow=hidden;rotatable=0;points=[[0,0.5],[1,0.5]];portConstraint=eastwest;" parent="e-X5rbSb38zJNJmSNRHm-144" vertex="1">
          <mxGeometry y="260" width="383" height="26" as="geometry" />
        </mxCell>
        <mxCell id="e-X5rbSb38zJNJmSNRHm-237" value="+ getBgs() : std::vector&lt;GameObject*&gt;&amp;" style="text;strokeColor=none;fillColor=none;align=left;verticalAlign=top;spacingLeft=4;spacingRight=4;overflow=hidden;rotatable=0;points=[[0,0.5],[1,0.5]];portConstraint=eastwest;" parent="e-X5rbSb38zJNJmSNRHm-144" vertex="1">
          <mxGeometry y="286" width="383" height="26" as="geometry" />
        </mxCell>
        <mxCell id="e-X5rbSb38zJNJmSNRHm-241" value="+ getMaps() : std::vector&lt;SDLGameObject*&gt;&amp;" style="text;strokeColor=none;fillColor=none;align=left;verticalAlign=top;spacingLeft=4;spacingRight=4;overflow=hidden;rotatable=0;points=[[0,0.5],[1,0.5]];portConstraint=eastwest;" parent="e-X5rbSb38zJNJmSNRHm-144" vertex="1">
          <mxGeometry y="312" width="383" height="26" as="geometry" />
        </mxCell>
        <mxCell id="e-X5rbSb38zJNJmSNRHm-242" value="+ getObjects() : std::vector&lt;GameObject*&gt;&amp;" style="text;strokeColor=none;fillColor=none;align=left;verticalAlign=top;spacingLeft=4;spacingRight=4;overflow=hidden;rotatable=0;points=[[0,0.5],[1,0.5]];portConstraint=eastwest;" parent="e-X5rbSb38zJNJmSNRHm-144" vertex="1">
          <mxGeometry y="338" width="383" height="26" as="geometry" />
        </mxCell>
        <mxCell id="e-X5rbSb38zJNJmSNRHm-238" value="+ getBgs() const : const std::vector&lt;GameObject*&gt;&amp;" style="text;strokeColor=none;fillColor=none;align=left;verticalAlign=top;spacingLeft=4;spacingRight=4;overflow=hidden;rotatable=0;points=[[0,0.5],[1,0.5]];portConstraint=eastwest;" parent="e-X5rbSb38zJNJmSNRHm-144" vertex="1">
          <mxGeometry y="364" width="383" height="26" as="geometry" />
        </mxCell>
        <mxCell id="e-X5rbSb38zJNJmSNRHm-239" value="+ getMaps() const : const std::vector&lt;SDLGameObject*&gt;&amp;" style="text;strokeColor=none;fillColor=none;align=left;verticalAlign=top;spacingLeft=4;spacingRight=4;overflow=hidden;rotatable=0;points=[[0,0.5],[1,0.5]];portConstraint=eastwest;" parent="e-X5rbSb38zJNJmSNRHm-144" vertex="1">
          <mxGeometry y="390" width="383" height="26" as="geometry" />
        </mxCell>
        <mxCell id="e-X5rbSb38zJNJmSNRHm-240" value="+ getObjects() const : const std::vector&lt;GameObject*&gt;&amp;" style="text;strokeColor=none;fillColor=none;align=left;verticalAlign=top;spacingLeft=4;spacingRight=4;overflow=hidden;rotatable=0;points=[[0,0.5],[1,0.5]];portConstraint=eastwest;" parent="e-X5rbSb38zJNJmSNRHm-144" vertex="1">
          <mxGeometry y="416" width="383" height="26" as="geometry" />
        </mxCell>
        <mxCell id="e-X5rbSb38zJNJmSNRHm-154" value="" style="line;strokeWidth=1;fillColor=none;align=left;verticalAlign=middle;spacingTop=-1;spacingLeft=3;spacingRight=3;rotatable=0;labelPosition=right;points=[];portConstraint=eastwest;" parent="e-X5rbSb38zJNJmSNRHm-144" vertex="1">
          <mxGeometry y="442" width="383" height="8" as="geometry" />
        </mxCell>
        <mxCell id="e-X5rbSb38zJNJmSNRHm-155" value="- s_pInstance : static Game*" style="text;strokeColor=none;fillColor=none;align=left;verticalAlign=top;spacingLeft=4;spacingRight=4;overflow=hidden;rotatable=0;points=[[0,0.5],[1,0.5]];portConstraint=eastwest;" parent="e-X5rbSb38zJNJmSNRHm-144" vertex="1">
          <mxGeometry y="450" width="383" height="26" as="geometry" />
        </mxCell>
        <mxCell id="e-X5rbSb38zJNJmSNRHm-156" value="- m_pWindow : SDL_Window*" style="text;strokeColor=none;fillColor=none;align=left;verticalAlign=top;spacingLeft=4;spacingRight=4;overflow=hidden;rotatable=0;points=[[0,0.5],[1,0.5]];portConstraint=eastwest;" parent="e-X5rbSb38zJNJmSNRHm-144" vertex="1">
          <mxGeometry y="476" width="383" height="26" as="geometry" />
        </mxCell>
        <mxCell id="e-X5rbSb38zJNJmSNRHm-157" value="- m_pRenderer : SDL_Renderer*" style="text;strokeColor=none;fillColor=none;align=left;verticalAlign=top;spacingLeft=4;spacingRight=4;overflow=hidden;rotatable=0;points=[[0,0.5],[1,0.5]];portConstraint=eastwest;" parent="e-X5rbSb38zJNJmSNRHm-144" vertex="1">
          <mxGeometry y="502" width="383" height="26" as="geometry" />
        </mxCell>
        <mxCell id="e-X5rbSb38zJNJmSNRHm-243" value="- m_pFont : TTF_Font*" style="text;strokeColor=none;fillColor=none;align=left;verticalAlign=top;spacingLeft=4;spacingRight=4;overflow=hidden;rotatable=0;points=[[0,0.5],[1,0.5]];portConstraint=eastwest;" parent="e-X5rbSb38zJNJmSNRHm-144" vertex="1">
          <mxGeometry y="528" width="383" height="26" as="geometry" />
        </mxCell>
        <mxCell id="e-X5rbSb38zJNJmSNRHm-158" value="- m_bRunning : bool" style="text;strokeColor=none;fillColor=none;align=left;verticalAlign=top;spacingLeft=4;spacingRight=4;overflow=hidden;rotatable=0;points=[[0,0.5],[1,0.5]];portConstraint=eastwest;" parent="e-X5rbSb38zJNJmSNRHm-144" vertex="1">
          <mxGeometry y="554" width="383" height="26" as="geometry" />
        </mxCell>
        <mxCell id="e-X5rbSb38zJNJmSNRHm-159" value="- m_currentFrame : int" style="text;strokeColor=none;fillColor=none;align=left;verticalAlign=top;spacingLeft=4;spacingRight=4;overflow=hidden;rotatable=0;points=[[0,0.5],[1,0.5]];portConstraint=eastwest;" parent="e-X5rbSb38zJNJmSNRHm-144" vertex="1">
          <mxGeometry y="580" width="383" height="26" as="geometry" />
        </mxCell>
        <mxCell id="e-X5rbSb38zJNJmSNRHm-160" value="- m_bgObjects : std::vector&lt;GameObject*&gt;" style="text;strokeColor=none;fillColor=none;align=left;verticalAlign=top;spacingLeft=4;spacingRight=4;overflow=hidden;rotatable=0;points=[[0,0.5],[1,0.5]];portConstraint=eastwest;" parent="e-X5rbSb38zJNJmSNRHm-144" vertex="1">
          <mxGeometry y="606" width="383" height="26" as="geometry" />
        </mxCell>
        <mxCell id="e-X5rbSb38zJNJmSNRHm-244" value="- m_mapObjects : std::vector&lt;SDLGameObject*&gt;" style="text;strokeColor=none;fillColor=none;align=left;verticalAlign=top;spacingLeft=4;spacingRight=4;overflow=hidden;rotatable=0;points=[[0,0.5],[1,0.5]];portConstraint=eastwest;" parent="e-X5rbSb38zJNJmSNRHm-144" vertex="1">
          <mxGeometry y="632" width="383" height="26" as="geometry" />
        </mxCell>
        <mxCell id="e-X5rbSb38zJNJmSNRHm-245" value="- m_gameObjects : std::vector&lt;GameObject*&gt;" style="text;strokeColor=none;fillColor=none;align=left;verticalAlign=top;spacingLeft=4;spacingRight=4;overflow=hidden;rotatable=0;points=[[0,0.5],[1,0.5]];portConstraint=eastwest;" parent="e-X5rbSb38zJNJmSNRHm-144" vertex="1">
          <mxGeometry y="658" width="383" height="26" as="geometry" />
        </mxCell>
        <mxCell id="e-X5rbSb38zJNJmSNRHm-225" style="edgeStyle=orthogonalEdgeStyle;rounded=0;orthogonalLoop=1;jettySize=auto;html=1;dashed=1;endArrow=open;endFill=0;" parent="1" source="e-X5rbSb38zJNJmSNRHm-22" target="e-X5rbSb38zJNJmSNRHm-89" edge="1">
          <mxGeometry relative="1" as="geometry" />
        </mxCell>
        <mxCell id="t7uJuH_INUOtXj3Et7XY-9" value="&lt;p style=&quot;margin: 0px ; margin-top: 4px ; text-align: center&quot;&gt;&lt;b&gt;Button&lt;/b&gt;&lt;/p&gt;&lt;hr size=&quot;1&quot;&gt;&lt;div style=&quot;height: 2px&quot;&gt;&lt;/div&gt;" style="verticalAlign=top;align=left;overflow=fill;fontSize=12;fontFamily=Helvetica;html=1;" vertex="1" parent="1">
          <mxGeometry x="1280" y="-458" width="140" height="60" as="geometry" />
        </mxCell>
        <mxCell id="t7uJuH_INUOtXj3Et7XY-10" value="&lt;p style=&quot;margin: 0px ; margin-top: 4px ; text-align: center&quot;&gt;&lt;b&gt;ButtonHandler&lt;/b&gt;&lt;/p&gt;&lt;hr size=&quot;1&quot;&gt;&lt;div style=&quot;height: 2px&quot;&gt;&lt;/div&gt;" style="verticalAlign=top;align=left;overflow=fill;fontSize=12;fontFamily=Helvetica;html=1;" vertex="1" parent="1">
          <mxGeometry x="1370" y="-584" width="140" height="60" as="geometry" />
        </mxCell>
        <mxCell id="t7uJuH_INUOtXj3Et7XY-11" value="&lt;p style=&quot;margin: 0px ; margin-top: 4px ; text-align: center&quot;&gt;&lt;b&gt;PopupWin&lt;/b&gt;&lt;/p&gt;&lt;hr size=&quot;1&quot;&gt;&lt;div style=&quot;height: 2px&quot;&gt;&lt;/div&gt;" style="verticalAlign=top;align=left;overflow=fill;fontSize=12;fontFamily=Helvetica;html=1;" vertex="1" parent="1">
          <mxGeometry x="1310" y="-370" width="140" height="60" as="geometry" />
        </mxCell>
        <mxCell id="t7uJuH_INUOtXj3Et7XY-13" value="«interface»&lt;br&gt;&lt;b&gt;ICommand&lt;/b&gt;" style="html=1;" vertex="1" parent="1">
          <mxGeometry x="1850" y="-488" width="110" height="50" as="geometry" />
        </mxCell>
        <mxCell id="t7uJuH_INUOtXj3Et7XY-16" value="Cmd_Info" style="swimlane;fontStyle=1;align=center;verticalAlign=top;childLayout=stackLayout;horizontal=1;startSize=26;horizontalStack=0;resizeParent=1;resizeParentMax=0;resizeLast=0;collapsible=1;marginBottom=0;" vertex="1" parent="1">
          <mxGeometry x="1670" y="-380" width="160" height="86" as="geometry" />
        </mxCell>
        <mxCell id="t7uJuH_INUOtXj3Et7XY-17" value="+ field: type" style="text;strokeColor=none;fillColor=none;align=left;verticalAlign=top;spacingLeft=4;spacingRight=4;overflow=hidden;rotatable=0;points=[[0,0.5],[1,0.5]];portConstraint=eastwest;" vertex="1" parent="t7uJuH_INUOtXj3Et7XY-16">
          <mxGeometry y="26" width="160" height="26" as="geometry" />
        </mxCell>
        <mxCell id="t7uJuH_INUOtXj3Et7XY-18" value="" style="line;strokeWidth=1;fillColor=none;align=left;verticalAlign=middle;spacingTop=-1;spacingLeft=3;spacingRight=3;rotatable=0;labelPosition=right;points=[];portConstraint=eastwest;" vertex="1" parent="t7uJuH_INUOtXj3Et7XY-16">
          <mxGeometry y="52" width="160" height="8" as="geometry" />
        </mxCell>
        <mxCell id="t7uJuH_INUOtXj3Et7XY-19" value="+ method(type): type" style="text;strokeColor=none;fillColor=none;align=left;verticalAlign=top;spacingLeft=4;spacingRight=4;overflow=hidden;rotatable=0;points=[[0,0.5],[1,0.5]];portConstraint=eastwest;" vertex="1" parent="t7uJuH_INUOtXj3Et7XY-16">
          <mxGeometry y="60" width="160" height="26" as="geometry" />
        </mxCell>
        <mxCell id="t7uJuH_INUOtXj3Et7XY-28" value="Cmd_ProductResource" style="swimlane;fontStyle=1;align=center;verticalAlign=top;childLayout=stackLayout;horizontal=1;startSize=26;horizontalStack=0;resizeParent=1;resizeParentMax=0;resizeLast=0;collapsible=1;marginBottom=0;" vertex="1" parent="1">
          <mxGeometry x="2090" y="-230" width="160" height="86" as="geometry" />
        </mxCell>
        <mxCell id="t7uJuH_INUOtXj3Et7XY-29" value="+ field: type" style="text;strokeColor=none;fillColor=none;align=left;verticalAlign=top;spacingLeft=4;spacingRight=4;overflow=hidden;rotatable=0;points=[[0,0.5],[1,0.5]];portConstraint=eastwest;" vertex="1" parent="t7uJuH_INUOtXj3Et7XY-28">
          <mxGeometry y="26" width="160" height="26" as="geometry" />
        </mxCell>
        <mxCell id="t7uJuH_INUOtXj3Et7XY-30" value="" style="line;strokeWidth=1;fillColor=none;align=left;verticalAlign=middle;spacingTop=-1;spacingLeft=3;spacingRight=3;rotatable=0;labelPosition=right;points=[];portConstraint=eastwest;" vertex="1" parent="t7uJuH_INUOtXj3Et7XY-28">
          <mxGeometry y="52" width="160" height="8" as="geometry" />
        </mxCell>
        <mxCell id="t7uJuH_INUOtXj3Et7XY-31" value="+ method(type): type" style="text;strokeColor=none;fillColor=none;align=left;verticalAlign=top;spacingLeft=4;spacingRight=4;overflow=hidden;rotatable=0;points=[[0,0.5],[1,0.5]];portConstraint=eastwest;" vertex="1" parent="t7uJuH_INUOtXj3Et7XY-28">
          <mxGeometry y="60" width="160" height="26" as="geometry" />
        </mxCell>
        <mxCell id="t7uJuH_INUOtXj3Et7XY-36" value="Cmd_ProductProcess" style="swimlane;fontStyle=1;align=center;verticalAlign=top;childLayout=stackLayout;horizontal=1;startSize=26;horizontalStack=0;resizeParent=1;resizeParentMax=0;resizeLast=0;collapsible=1;marginBottom=0;" vertex="1" parent="1">
          <mxGeometry x="1910" y="-230" width="160" height="86" as="geometry" />
        </mxCell>
        <mxCell id="t7uJuH_INUOtXj3Et7XY-37" value="+ field: type" style="text;strokeColor=none;fillColor=none;align=left;verticalAlign=top;spacingLeft=4;spacingRight=4;overflow=hidden;rotatable=0;points=[[0,0.5],[1,0.5]];portConstraint=eastwest;" vertex="1" parent="t7uJuH_INUOtXj3Et7XY-36">
          <mxGeometry y="26" width="160" height="26" as="geometry" />
        </mxCell>
        <mxCell id="t7uJuH_INUOtXj3Et7XY-38" value="" style="line;strokeWidth=1;fillColor=none;align=left;verticalAlign=middle;spacingTop=-1;spacingLeft=3;spacingRight=3;rotatable=0;labelPosition=right;points=[];portConstraint=eastwest;" vertex="1" parent="t7uJuH_INUOtXj3Et7XY-36">
          <mxGeometry y="52" width="160" height="8" as="geometry" />
        </mxCell>
        <mxCell id="t7uJuH_INUOtXj3Et7XY-39" value="+ method(type): type" style="text;strokeColor=none;fillColor=none;align=left;verticalAlign=top;spacingLeft=4;spacingRight=4;overflow=hidden;rotatable=0;points=[[0,0.5],[1,0.5]];portConstraint=eastwest;" vertex="1" parent="t7uJuH_INUOtXj3Et7XY-36">
          <mxGeometry y="60" width="160" height="26" as="geometry" />
        </mxCell>
        <mxCell id="t7uJuH_INUOtXj3Et7XY-40" value="Cmd_SupplyEnd" style="swimlane;fontStyle=1;align=center;verticalAlign=top;childLayout=stackLayout;horizontal=1;startSize=26;horizontalStack=0;resizeParent=1;resizeParentMax=0;resizeLast=0;collapsible=1;marginBottom=0;" vertex="1" parent="1">
          <mxGeometry x="2090" y="-60" width="160" height="86" as="geometry" />
        </mxCell>
        <mxCell id="t7uJuH_INUOtXj3Et7XY-41" value="+ field: type" style="text;strokeColor=none;fillColor=none;align=left;verticalAlign=top;spacingLeft=4;spacingRight=4;overflow=hidden;rotatable=0;points=[[0,0.5],[1,0.5]];portConstraint=eastwest;" vertex="1" parent="t7uJuH_INUOtXj3Et7XY-40">
          <mxGeometry y="26" width="160" height="26" as="geometry" />
        </mxCell>
        <mxCell id="t7uJuH_INUOtXj3Et7XY-42" value="" style="line;strokeWidth=1;fillColor=none;align=left;verticalAlign=middle;spacingTop=-1;spacingLeft=3;spacingRight=3;rotatable=0;labelPosition=right;points=[];portConstraint=eastwest;" vertex="1" parent="t7uJuH_INUOtXj3Et7XY-40">
          <mxGeometry y="52" width="160" height="8" as="geometry" />
        </mxCell>
        <mxCell id="t7uJuH_INUOtXj3Et7XY-43" value="+ method(type): type" style="text;strokeColor=none;fillColor=none;align=left;verticalAlign=top;spacingLeft=4;spacingRight=4;overflow=hidden;rotatable=0;points=[[0,0.5],[1,0.5]];portConstraint=eastwest;" vertex="1" parent="t7uJuH_INUOtXj3Et7XY-40">
          <mxGeometry y="60" width="160" height="26" as="geometry" />
        </mxCell>
        <mxCell id="t7uJuH_INUOtXj3Et7XY-44" value="Cmd_SupplyProcess" style="swimlane;fontStyle=1;align=center;verticalAlign=top;childLayout=stackLayout;horizontal=1;startSize=26;horizontalStack=0;resizeParent=1;resizeParentMax=0;resizeLast=0;collapsible=1;marginBottom=0;" vertex="1" parent="1">
          <mxGeometry x="1910" y="-60" width="160" height="86" as="geometry" />
        </mxCell>
        <mxCell id="t7uJuH_INUOtXj3Et7XY-45" value="+ field: type" style="text;strokeColor=none;fillColor=none;align=left;verticalAlign=top;spacingLeft=4;spacingRight=4;overflow=hidden;rotatable=0;points=[[0,0.5],[1,0.5]];portConstraint=eastwest;" vertex="1" parent="t7uJuH_INUOtXj3Et7XY-44">
          <mxGeometry y="26" width="160" height="26" as="geometry" />
        </mxCell>
        <mxCell id="t7uJuH_INUOtXj3Et7XY-46" value="" style="line;strokeWidth=1;fillColor=none;align=left;verticalAlign=middle;spacingTop=-1;spacingLeft=3;spacingRight=3;rotatable=0;labelPosition=right;points=[];portConstraint=eastwest;" vertex="1" parent="t7uJuH_INUOtXj3Et7XY-44">
          <mxGeometry y="52" width="160" height="8" as="geometry" />
        </mxCell>
        <mxCell id="t7uJuH_INUOtXj3Et7XY-47" value="+ method(type): type" style="text;strokeColor=none;fillColor=none;align=left;verticalAlign=top;spacingLeft=4;spacingRight=4;overflow=hidden;rotatable=0;points=[[0,0.5],[1,0.5]];portConstraint=eastwest;" vertex="1" parent="t7uJuH_INUOtXj3Et7XY-44">
          <mxGeometry y="60" width="160" height="26" as="geometry" />
        </mxCell>
        <mxCell id="t7uJuH_INUOtXj3Et7XY-52" value="Cmd_UseResrc" style="swimlane;fontStyle=1;align=center;verticalAlign=top;childLayout=stackLayout;horizontal=1;startSize=26;horizontalStack=0;resizeParent=1;resizeParentMax=0;resizeLast=0;collapsible=1;marginBottom=0;" vertex="1" parent="1">
          <mxGeometry x="2290" y="-60" width="160" height="86" as="geometry" />
        </mxCell>
        <mxCell id="t7uJuH_INUOtXj3Et7XY-53" value="+ field: type" style="text;strokeColor=none;fillColor=none;align=left;verticalAlign=top;spacingLeft=4;spacingRight=4;overflow=hidden;rotatable=0;points=[[0,0.5],[1,0.5]];portConstraint=eastwest;" vertex="1" parent="t7uJuH_INUOtXj3Et7XY-52">
          <mxGeometry y="26" width="160" height="26" as="geometry" />
        </mxCell>
        <mxCell id="t7uJuH_INUOtXj3Et7XY-54" value="" style="line;strokeWidth=1;fillColor=none;align=left;verticalAlign=middle;spacingTop=-1;spacingLeft=3;spacingRight=3;rotatable=0;labelPosition=right;points=[];portConstraint=eastwest;" vertex="1" parent="t7uJuH_INUOtXj3Et7XY-52">
          <mxGeometry y="52" width="160" height="8" as="geometry" />
        </mxCell>
        <mxCell id="t7uJuH_INUOtXj3Et7XY-55" value="+ method(type): type" style="text;strokeColor=none;fillColor=none;align=left;verticalAlign=top;spacingLeft=4;spacingRight=4;overflow=hidden;rotatable=0;points=[[0,0.5],[1,0.5]];portConstraint=eastwest;" vertex="1" parent="t7uJuH_INUOtXj3Et7XY-52">
          <mxGeometry y="60" width="160" height="26" as="geometry" />
        </mxCell>
        <mxCell id="t7uJuH_INUOtXj3Et7XY-56" value="Cmd_Investment_Swat" style="swimlane;fontStyle=1;align=center;verticalAlign=top;childLayout=stackLayout;horizontal=1;startSize=26;horizontalStack=0;resizeParent=1;resizeParentMax=0;resizeLast=0;collapsible=1;marginBottom=0;" vertex="1" parent="1">
          <mxGeometry x="1910" y="100" width="160" height="86" as="geometry" />
        </mxCell>
        <mxCell id="t7uJuH_INUOtXj3Et7XY-57" value="+ field: type" style="text;strokeColor=none;fillColor=none;align=left;verticalAlign=top;spacingLeft=4;spacingRight=4;overflow=hidden;rotatable=0;points=[[0,0.5],[1,0.5]];portConstraint=eastwest;" vertex="1" parent="t7uJuH_INUOtXj3Et7XY-56">
          <mxGeometry y="26" width="160" height="26" as="geometry" />
        </mxCell>
        <mxCell id="t7uJuH_INUOtXj3Et7XY-58" value="" style="line;strokeWidth=1;fillColor=none;align=left;verticalAlign=middle;spacingTop=-1;spacingLeft=3;spacingRight=3;rotatable=0;labelPosition=right;points=[];portConstraint=eastwest;" vertex="1" parent="t7uJuH_INUOtXj3Et7XY-56">
          <mxGeometry y="52" width="160" height="8" as="geometry" />
        </mxCell>
        <mxCell id="t7uJuH_INUOtXj3Et7XY-59" value="+ method(type): type" style="text;strokeColor=none;fillColor=none;align=left;verticalAlign=top;spacingLeft=4;spacingRight=4;overflow=hidden;rotatable=0;points=[[0,0.5],[1,0.5]];portConstraint=eastwest;" vertex="1" parent="t7uJuH_INUOtXj3Et7XY-56">
          <mxGeometry y="60" width="160" height="26" as="geometry" />
        </mxCell>
        <mxCell id="t7uJuH_INUOtXj3Et7XY-60" value="Cmd_InvestmentProcess_Swat" style="swimlane;fontStyle=1;align=center;verticalAlign=top;childLayout=stackLayout;horizontal=1;startSize=26;horizontalStack=0;resizeParent=1;resizeParentMax=0;resizeLast=0;collapsible=1;marginBottom=0;" vertex="1" parent="1">
          <mxGeometry x="2090" y="100" width="200" height="86" as="geometry" />
        </mxCell>
        <mxCell id="t7uJuH_INUOtXj3Et7XY-61" value="+ field: type" style="text;strokeColor=none;fillColor=none;align=left;verticalAlign=top;spacingLeft=4;spacingRight=4;overflow=hidden;rotatable=0;points=[[0,0.5],[1,0.5]];portConstraint=eastwest;" vertex="1" parent="t7uJuH_INUOtXj3Et7XY-60">
          <mxGeometry y="26" width="200" height="26" as="geometry" />
        </mxCell>
        <mxCell id="t7uJuH_INUOtXj3Et7XY-62" value="" style="line;strokeWidth=1;fillColor=none;align=left;verticalAlign=middle;spacingTop=-1;spacingLeft=3;spacingRight=3;rotatable=0;labelPosition=right;points=[];portConstraint=eastwest;" vertex="1" parent="t7uJuH_INUOtXj3Et7XY-60">
          <mxGeometry y="52" width="200" height="8" as="geometry" />
        </mxCell>
        <mxCell id="t7uJuH_INUOtXj3Et7XY-63" value="+ method(type): type" style="text;strokeColor=none;fillColor=none;align=left;verticalAlign=top;spacingLeft=4;spacingRight=4;overflow=hidden;rotatable=0;points=[[0,0.5],[1,0.5]];portConstraint=eastwest;" vertex="1" parent="t7uJuH_INUOtXj3Et7XY-60">
          <mxGeometry y="60" width="200" height="26" as="geometry" />
        </mxCell>
        <mxCell id="t7uJuH_INUOtXj3Et7XY-64" value="Cmd_InvestmentEnd_Swat" style="swimlane;fontStyle=1;align=center;verticalAlign=top;childLayout=stackLayout;horizontal=1;startSize=26;horizontalStack=0;resizeParent=1;resizeParentMax=0;resizeLast=0;collapsible=1;marginBottom=0;" vertex="1" parent="1">
          <mxGeometry x="2310" y="100" width="200" height="86" as="geometry" />
        </mxCell>
        <mxCell id="t7uJuH_INUOtXj3Et7XY-65" value="+ field: type" style="text;strokeColor=none;fillColor=none;align=left;verticalAlign=top;spacingLeft=4;spacingRight=4;overflow=hidden;rotatable=0;points=[[0,0.5],[1,0.5]];portConstraint=eastwest;" vertex="1" parent="t7uJuH_INUOtXj3Et7XY-64">
          <mxGeometry y="26" width="200" height="26" as="geometry" />
        </mxCell>
        <mxCell id="t7uJuH_INUOtXj3Et7XY-66" value="" style="line;strokeWidth=1;fillColor=none;align=left;verticalAlign=middle;spacingTop=-1;spacingLeft=3;spacingRight=3;rotatable=0;labelPosition=right;points=[];portConstraint=eastwest;" vertex="1" parent="t7uJuH_INUOtXj3Et7XY-64">
          <mxGeometry y="52" width="200" height="8" as="geometry" />
        </mxCell>
        <mxCell id="t7uJuH_INUOtXj3Et7XY-67" value="+ method(type): type" style="text;strokeColor=none;fillColor=none;align=left;verticalAlign=top;spacingLeft=4;spacingRight=4;overflow=hidden;rotatable=0;points=[[0,0.5],[1,0.5]];portConstraint=eastwest;" vertex="1" parent="t7uJuH_INUOtXj3Et7XY-64">
          <mxGeometry y="60" width="200" height="26" as="geometry" />
        </mxCell>
        <mxCell id="t7uJuH_INUOtXj3Et7XY-70" value="Cmd_Investment_Resource" style="swimlane;fontStyle=1;align=center;verticalAlign=top;childLayout=stackLayout;horizontal=1;startSize=26;horizontalStack=0;resizeParent=1;resizeParentMax=0;resizeLast=0;collapsible=1;marginBottom=0;" vertex="1" parent="1">
          <mxGeometry x="1900" y="240" width="200" height="86" as="geometry" />
        </mxCell>
        <mxCell id="t7uJuH_INUOtXj3Et7XY-71" value="+ field: type" style="text;strokeColor=none;fillColor=none;align=left;verticalAlign=top;spacingLeft=4;spacingRight=4;overflow=hidden;rotatable=0;points=[[0,0.5],[1,0.5]];portConstraint=eastwest;" vertex="1" parent="t7uJuH_INUOtXj3Et7XY-70">
          <mxGeometry y="26" width="200" height="26" as="geometry" />
        </mxCell>
        <mxCell id="t7uJuH_INUOtXj3Et7XY-72" value="" style="line;strokeWidth=1;fillColor=none;align=left;verticalAlign=middle;spacingTop=-1;spacingLeft=3;spacingRight=3;rotatable=0;labelPosition=right;points=[];portConstraint=eastwest;" vertex="1" parent="t7uJuH_INUOtXj3Et7XY-70">
          <mxGeometry y="52" width="200" height="8" as="geometry" />
        </mxCell>
        <mxCell id="t7uJuH_INUOtXj3Et7XY-73" value="+ method(type): type" style="text;strokeColor=none;fillColor=none;align=left;verticalAlign=top;spacingLeft=4;spacingRight=4;overflow=hidden;rotatable=0;points=[[0,0.5],[1,0.5]];portConstraint=eastwest;" vertex="1" parent="t7uJuH_INUOtXj3Et7XY-70">
          <mxGeometry y="60" width="200" height="26" as="geometry" />
        </mxCell>
        <mxCell id="t7uJuH_INUOtXj3Et7XY-74" value="Cmd_SwatProductProcess" style="swimlane;fontStyle=1;align=center;verticalAlign=top;childLayout=stackLayout;horizontal=1;startSize=26;horizontalStack=0;resizeParent=1;resizeParentMax=0;resizeLast=0;collapsible=1;marginBottom=0;" vertex="1" parent="1">
          <mxGeometry x="2120" y="240" width="200" height="86" as="geometry" />
        </mxCell>
        <mxCell id="t7uJuH_INUOtXj3Et7XY-75" value="+ field: type" style="text;strokeColor=none;fillColor=none;align=left;verticalAlign=top;spacingLeft=4;spacingRight=4;overflow=hidden;rotatable=0;points=[[0,0.5],[1,0.5]];portConstraint=eastwest;" vertex="1" parent="t7uJuH_INUOtXj3Et7XY-74">
          <mxGeometry y="26" width="200" height="26" as="geometry" />
        </mxCell>
        <mxCell id="t7uJuH_INUOtXj3Et7XY-76" value="" style="line;strokeWidth=1;fillColor=none;align=left;verticalAlign=middle;spacingTop=-1;spacingLeft=3;spacingRight=3;rotatable=0;labelPosition=right;points=[];portConstraint=eastwest;" vertex="1" parent="t7uJuH_INUOtXj3Et7XY-74">
          <mxGeometry y="52" width="200" height="8" as="geometry" />
        </mxCell>
        <mxCell id="t7uJuH_INUOtXj3Et7XY-77" value="+ method(type): type" style="text;strokeColor=none;fillColor=none;align=left;verticalAlign=top;spacingLeft=4;spacingRight=4;overflow=hidden;rotatable=0;points=[[0,0.5],[1,0.5]];portConstraint=eastwest;" vertex="1" parent="t7uJuH_INUOtXj3Et7XY-74">
          <mxGeometry y="60" width="200" height="26" as="geometry" />
        </mxCell>
        <mxCell id="t7uJuH_INUOtXj3Et7XY-78" value="Cmd_Turn" style="swimlane;fontStyle=1;align=center;verticalAlign=top;childLayout=stackLayout;horizontal=1;startSize=26;horizontalStack=0;resizeParent=1;resizeParentMax=0;resizeLast=0;collapsible=1;marginBottom=0;" vertex="1" parent="1">
          <mxGeometry x="1908" y="360" width="160" height="86" as="geometry" />
        </mxCell>
        <mxCell id="t7uJuH_INUOtXj3Et7XY-79" value="+ field: type" style="text;strokeColor=none;fillColor=none;align=left;verticalAlign=top;spacingLeft=4;spacingRight=4;overflow=hidden;rotatable=0;points=[[0,0.5],[1,0.5]];portConstraint=eastwest;" vertex="1" parent="t7uJuH_INUOtXj3Et7XY-78">
          <mxGeometry y="26" width="160" height="26" as="geometry" />
        </mxCell>
        <mxCell id="t7uJuH_INUOtXj3Et7XY-80" value="" style="line;strokeWidth=1;fillColor=none;align=left;verticalAlign=middle;spacingTop=-1;spacingLeft=3;spacingRight=3;rotatable=0;labelPosition=right;points=[];portConstraint=eastwest;" vertex="1" parent="t7uJuH_INUOtXj3Et7XY-78">
          <mxGeometry y="52" width="160" height="8" as="geometry" />
        </mxCell>
        <mxCell id="t7uJuH_INUOtXj3Et7XY-81" value="+ method(type): type" style="text;strokeColor=none;fillColor=none;align=left;verticalAlign=top;spacingLeft=4;spacingRight=4;overflow=hidden;rotatable=0;points=[[0,0.5],[1,0.5]];portConstraint=eastwest;" vertex="1" parent="t7uJuH_INUOtXj3Et7XY-78">
          <mxGeometry y="60" width="160" height="26" as="geometry" />
        </mxCell>
        <mxCell id="t7uJuH_INUOtXj3Et7XY-82" value="Cmd_Xbutton" style="swimlane;fontStyle=1;align=center;verticalAlign=top;childLayout=stackLayout;horizontal=1;startSize=26;horizontalStack=0;resizeParent=1;resizeParentMax=0;resizeLast=0;collapsible=1;marginBottom=0;" vertex="1" parent="1">
          <mxGeometry x="2100" y="360" width="160" height="86" as="geometry" />
        </mxCell>
        <mxCell id="t7uJuH_INUOtXj3Et7XY-83" value="+ field: type" style="text;strokeColor=none;fillColor=none;align=left;verticalAlign=top;spacingLeft=4;spacingRight=4;overflow=hidden;rotatable=0;points=[[0,0.5],[1,0.5]];portConstraint=eastwest;" vertex="1" parent="t7uJuH_INUOtXj3Et7XY-82">
          <mxGeometry y="26" width="160" height="26" as="geometry" />
        </mxCell>
        <mxCell id="t7uJuH_INUOtXj3Et7XY-84" value="" style="line;strokeWidth=1;fillColor=none;align=left;verticalAlign=middle;spacingTop=-1;spacingLeft=3;spacingRight=3;rotatable=0;labelPosition=right;points=[];portConstraint=eastwest;" vertex="1" parent="t7uJuH_INUOtXj3Et7XY-82">
          <mxGeometry y="52" width="160" height="8" as="geometry" />
        </mxCell>
        <mxCell id="t7uJuH_INUOtXj3Et7XY-85" value="+ method(type): type" style="text;strokeColor=none;fillColor=none;align=left;verticalAlign=top;spacingLeft=4;spacingRight=4;overflow=hidden;rotatable=0;points=[[0,0.5],[1,0.5]];portConstraint=eastwest;" vertex="1" parent="t7uJuH_INUOtXj3Et7XY-82">
          <mxGeometry y="60" width="160" height="26" as="geometry" />
        </mxCell>
        <mxCell id="t7uJuH_INUOtXj3Et7XY-86" value="«interface»&lt;br&gt;&lt;b&gt;ITake&lt;/b&gt;" style="html=1;" vertex="1" parent="1">
          <mxGeometry x="2030" y="-524" width="110" height="50" as="geometry" />
        </mxCell>
        <mxCell id="t7uJuH_INUOtXj3Et7XY-87" value="«interface»&lt;br&gt;&lt;b&gt;IUse&lt;/b&gt;" style="html=1;" vertex="1" parent="1">
          <mxGeometry x="2070" y="-458" width="110" height="50" as="geometry" />
        </mxCell>
        <mxCell id="t7uJuH_INUOtXj3Et7XY-88" value="FD" style="swimlane;fontStyle=1;align=center;verticalAlign=top;childLayout=stackLayout;horizontal=1;startSize=26;horizontalStack=0;resizeParent=1;resizeParentMax=0;resizeLast=0;collapsible=1;marginBottom=0;" vertex="1" parent="1">
          <mxGeometry x="2210" y="-700" width="160" height="86" as="geometry" />
        </mxCell>
        <mxCell id="t7uJuH_INUOtXj3Et7XY-89" value="+ field: type" style="text;strokeColor=none;fillColor=none;align=left;verticalAlign=top;spacingLeft=4;spacingRight=4;overflow=hidden;rotatable=0;points=[[0,0.5],[1,0.5]];portConstraint=eastwest;" vertex="1" parent="t7uJuH_INUOtXj3Et7XY-88">
          <mxGeometry y="26" width="160" height="26" as="geometry" />
        </mxCell>
        <mxCell id="t7uJuH_INUOtXj3Et7XY-90" value="" style="line;strokeWidth=1;fillColor=none;align=left;verticalAlign=middle;spacingTop=-1;spacingLeft=3;spacingRight=3;rotatable=0;labelPosition=right;points=[];portConstraint=eastwest;" vertex="1" parent="t7uJuH_INUOtXj3Et7XY-88">
          <mxGeometry y="52" width="160" height="8" as="geometry" />
        </mxCell>
        <mxCell id="t7uJuH_INUOtXj3Et7XY-91" value="+ method(type): type" style="text;strokeColor=none;fillColor=none;align=left;verticalAlign=top;spacingLeft=4;spacingRight=4;overflow=hidden;rotatable=0;points=[[0,0.5],[1,0.5]];portConstraint=eastwest;" vertex="1" parent="t7uJuH_INUOtXj3Et7XY-88">
          <mxGeometry y="60" width="160" height="26" as="geometry" />
        </mxCell>
        <mxCell id="t7uJuH_INUOtXj3Et7XY-92" value="MD" style="swimlane;fontStyle=1;align=center;verticalAlign=top;childLayout=stackLayout;horizontal=1;startSize=26;horizontalStack=0;resizeParent=1;resizeParentMax=0;resizeLast=0;collapsible=1;marginBottom=0;" vertex="1" parent="1">
          <mxGeometry x="2210" y="-810" width="160" height="86" as="geometry" />
        </mxCell>
        <mxCell id="t7uJuH_INUOtXj3Et7XY-93" value="+ field: type" style="text;strokeColor=none;fillColor=none;align=left;verticalAlign=top;spacingLeft=4;spacingRight=4;overflow=hidden;rotatable=0;points=[[0,0.5],[1,0.5]];portConstraint=eastwest;" vertex="1" parent="t7uJuH_INUOtXj3Et7XY-92">
          <mxGeometry y="26" width="160" height="26" as="geometry" />
        </mxCell>
        <mxCell id="t7uJuH_INUOtXj3Et7XY-94" value="" style="line;strokeWidth=1;fillColor=none;align=left;verticalAlign=middle;spacingTop=-1;spacingLeft=3;spacingRight=3;rotatable=0;labelPosition=right;points=[];portConstraint=eastwest;" vertex="1" parent="t7uJuH_INUOtXj3Et7XY-92">
          <mxGeometry y="52" width="160" height="8" as="geometry" />
        </mxCell>
        <mxCell id="t7uJuH_INUOtXj3Et7XY-95" value="+ method(type): type" style="text;strokeColor=none;fillColor=none;align=left;verticalAlign=top;spacingLeft=4;spacingRight=4;overflow=hidden;rotatable=0;points=[[0,0.5],[1,0.5]];portConstraint=eastwest;" vertex="1" parent="t7uJuH_INUOtXj3Et7XY-92">
          <mxGeometry y="60" width="160" height="26" as="geometry" />
        </mxCell>
        <mxCell id="t7uJuH_INUOtXj3Et7XY-96" value="HP" style="swimlane;fontStyle=1;align=center;verticalAlign=top;childLayout=stackLayout;horizontal=1;startSize=26;horizontalStack=0;resizeParent=1;resizeParentMax=0;resizeLast=0;collapsible=1;marginBottom=0;" vertex="1" parent="1">
          <mxGeometry x="2020" y="-810" width="160" height="86" as="geometry" />
        </mxCell>
        <mxCell id="t7uJuH_INUOtXj3Et7XY-97" value="+ field: type" style="text;strokeColor=none;fillColor=none;align=left;verticalAlign=top;spacingLeft=4;spacingRight=4;overflow=hidden;rotatable=0;points=[[0,0.5],[1,0.5]];portConstraint=eastwest;" vertex="1" parent="t7uJuH_INUOtXj3Et7XY-96">
          <mxGeometry y="26" width="160" height="26" as="geometry" />
        </mxCell>
        <mxCell id="t7uJuH_INUOtXj3Et7XY-98" value="" style="line;strokeWidth=1;fillColor=none;align=left;verticalAlign=middle;spacingTop=-1;spacingLeft=3;spacingRight=3;rotatable=0;labelPosition=right;points=[];portConstraint=eastwest;" vertex="1" parent="t7uJuH_INUOtXj3Et7XY-96">
          <mxGeometry y="52" width="160" height="8" as="geometry" />
        </mxCell>
        <mxCell id="t7uJuH_INUOtXj3Et7XY-99" value="+ method(type): type" style="text;strokeColor=none;fillColor=none;align=left;verticalAlign=top;spacingLeft=4;spacingRight=4;overflow=hidden;rotatable=0;points=[[0,0.5],[1,0.5]];portConstraint=eastwest;" vertex="1" parent="t7uJuH_INUOtXj3Et7XY-96">
          <mxGeometry y="60" width="160" height="26" as="geometry" />
        </mxCell>
        <mxCell id="t7uJuH_INUOtXj3Et7XY-100" value="WP" style="swimlane;fontStyle=1;align=center;verticalAlign=top;childLayout=stackLayout;horizontal=1;startSize=26;horizontalStack=0;resizeParent=1;resizeParentMax=0;resizeLast=0;collapsible=1;marginBottom=0;" vertex="1" parent="1">
          <mxGeometry x="2020" y="-700" width="160" height="86" as="geometry" />
        </mxCell>
        <mxCell id="t7uJuH_INUOtXj3Et7XY-101" value="+ field: type" style="text;strokeColor=none;fillColor=none;align=left;verticalAlign=top;spacingLeft=4;spacingRight=4;overflow=hidden;rotatable=0;points=[[0,0.5],[1,0.5]];portConstraint=eastwest;" vertex="1" parent="t7uJuH_INUOtXj3Et7XY-100">
          <mxGeometry y="26" width="160" height="26" as="geometry" />
        </mxCell>
        <mxCell id="t7uJuH_INUOtXj3Et7XY-102" value="" style="line;strokeWidth=1;fillColor=none;align=left;verticalAlign=middle;spacingTop=-1;spacingLeft=3;spacingRight=3;rotatable=0;labelPosition=right;points=[];portConstraint=eastwest;" vertex="1" parent="t7uJuH_INUOtXj3Et7XY-100">
          <mxGeometry y="52" width="160" height="8" as="geometry" />
        </mxCell>
        <mxCell id="t7uJuH_INUOtXj3Et7XY-103" value="+ method(type): type" style="text;strokeColor=none;fillColor=none;align=left;verticalAlign=top;spacingLeft=4;spacingRight=4;overflow=hidden;rotatable=0;points=[[0,0.5],[1,0.5]];portConstraint=eastwest;" vertex="1" parent="t7uJuH_INUOtXj3Et7XY-100">
          <mxGeometry y="60" width="160" height="26" as="geometry" />
        </mxCell>
        <mxCell id="t7uJuH_INUOtXj3Et7XY-105" value="ResourceData" style="swimlane;fontStyle=1;align=center;verticalAlign=top;childLayout=stackLayout;horizontal=1;startSize=26;horizontalStack=0;resizeParent=1;resizeParentMax=0;resizeLast=0;collapsible=1;marginBottom=0;" vertex="1" parent="1">
          <mxGeometry x="2100" y="-970" width="160" height="86" as="geometry" />
        </mxCell>
        <mxCell id="t7uJuH_INUOtXj3Et7XY-106" value="+ field: type" style="text;strokeColor=none;fillColor=none;align=left;verticalAlign=top;spacingLeft=4;spacingRight=4;overflow=hidden;rotatable=0;points=[[0,0.5],[1,0.5]];portConstraint=eastwest;" vertex="1" parent="t7uJuH_INUOtXj3Et7XY-105">
          <mxGeometry y="26" width="160" height="26" as="geometry" />
        </mxCell>
        <mxCell id="t7uJuH_INUOtXj3Et7XY-107" value="" style="line;strokeWidth=1;fillColor=none;align=left;verticalAlign=middle;spacingTop=-1;spacingLeft=3;spacingRight=3;rotatable=0;labelPosition=right;points=[];portConstraint=eastwest;" vertex="1" parent="t7uJuH_INUOtXj3Et7XY-105">
          <mxGeometry y="52" width="160" height="8" as="geometry" />
        </mxCell>
        <mxCell id="t7uJuH_INUOtXj3Et7XY-108" value="+ method(type): type" style="text;strokeColor=none;fillColor=none;align=left;verticalAlign=top;spacingLeft=4;spacingRight=4;overflow=hidden;rotatable=0;points=[[0,0.5],[1,0.5]];portConstraint=eastwest;" vertex="1" parent="t7uJuH_INUOtXj3Et7XY-105">
          <mxGeometry y="60" width="160" height="26" as="geometry" />
        </mxCell>
        <mxCell id="t7uJuH_INUOtXj3Et7XY-109" value="DataControl" style="swimlane;fontStyle=1;align=center;verticalAlign=top;childLayout=stackLayout;horizontal=1;startSize=26;horizontalStack=0;resizeParent=1;resizeParentMax=0;resizeLast=0;collapsible=1;marginBottom=0;" vertex="1" parent="1">
          <mxGeometry x="1900" y="-970" width="160" height="86" as="geometry" />
        </mxCell>
        <mxCell id="t7uJuH_INUOtXj3Et7XY-110" value="+ field: type" style="text;strokeColor=none;fillColor=none;align=left;verticalAlign=top;spacingLeft=4;spacingRight=4;overflow=hidden;rotatable=0;points=[[0,0.5],[1,0.5]];portConstraint=eastwest;" vertex="1" parent="t7uJuH_INUOtXj3Et7XY-109">
          <mxGeometry y="26" width="160" height="26" as="geometry" />
        </mxCell>
        <mxCell id="t7uJuH_INUOtXj3Et7XY-111" value="" style="line;strokeWidth=1;fillColor=none;align=left;verticalAlign=middle;spacingTop=-1;spacingLeft=3;spacingRight=3;rotatable=0;labelPosition=right;points=[];portConstraint=eastwest;" vertex="1" parent="t7uJuH_INUOtXj3Et7XY-109">
          <mxGeometry y="52" width="160" height="8" as="geometry" />
        </mxCell>
        <mxCell id="t7uJuH_INUOtXj3Et7XY-112" value="+ method(type): type" style="text;strokeColor=none;fillColor=none;align=left;verticalAlign=top;spacingLeft=4;spacingRight=4;overflow=hidden;rotatable=0;points=[[0,0.5],[1,0.5]];portConstraint=eastwest;" vertex="1" parent="t7uJuH_INUOtXj3Et7XY-109">
          <mxGeometry y="60" width="160" height="26" as="geometry" />
        </mxCell>
        <mxCell id="t7uJuH_INUOtXj3Et7XY-113" value="DataView" style="swimlane;fontStyle=1;align=center;verticalAlign=top;childLayout=stackLayout;horizontal=1;startSize=26;horizontalStack=0;resizeParent=1;resizeParentMax=0;resizeLast=0;collapsible=1;marginBottom=0;" vertex="1" parent="1">
          <mxGeometry x="1690" y="-974" width="160" height="86" as="geometry" />
        </mxCell>
        <mxCell id="t7uJuH_INUOtXj3Et7XY-114" value="+ field: type" style="text;strokeColor=none;fillColor=none;align=left;verticalAlign=top;spacingLeft=4;spacingRight=4;overflow=hidden;rotatable=0;points=[[0,0.5],[1,0.5]];portConstraint=eastwest;" vertex="1" parent="t7uJuH_INUOtXj3Et7XY-113">
          <mxGeometry y="26" width="160" height="26" as="geometry" />
        </mxCell>
        <mxCell id="t7uJuH_INUOtXj3Et7XY-115" value="" style="line;strokeWidth=1;fillColor=none;align=left;verticalAlign=middle;spacingTop=-1;spacingLeft=3;spacingRight=3;rotatable=0;labelPosition=right;points=[];portConstraint=eastwest;" vertex="1" parent="t7uJuH_INUOtXj3Et7XY-113">
          <mxGeometry y="52" width="160" height="8" as="geometry" />
        </mxCell>
        <mxCell id="t7uJuH_INUOtXj3Et7XY-116" value="+ method(type): type" style="text;strokeColor=none;fillColor=none;align=left;verticalAlign=top;spacingLeft=4;spacingRight=4;overflow=hidden;rotatable=0;points=[[0,0.5],[1,0.5]];portConstraint=eastwest;" vertex="1" parent="t7uJuH_INUOtXj3Et7XY-113">
          <mxGeometry y="60" width="160" height="26" as="geometry" />
        </mxCell>
        <mxCell id="t7uJuH_INUOtXj3Et7XY-117" value="InfoData" style="swimlane;fontStyle=1;align=center;verticalAlign=top;childLayout=stackLayout;horizontal=1;startSize=26;horizontalStack=0;resizeParent=1;resizeParentMax=0;resizeLast=0;collapsible=1;marginBottom=0;" vertex="1" parent="1">
          <mxGeometry x="1180" y="-1070" width="160" height="86" as="geometry" />
        </mxCell>
        <mxCell id="t7uJuH_INUOtXj3Et7XY-118" value="+ field: type" style="text;strokeColor=none;fillColor=none;align=left;verticalAlign=top;spacingLeft=4;spacingRight=4;overflow=hidden;rotatable=0;points=[[0,0.5],[1,0.5]];portConstraint=eastwest;" vertex="1" parent="t7uJuH_INUOtXj3Et7XY-117">
          <mxGeometry y="26" width="160" height="26" as="geometry" />
        </mxCell>
        <mxCell id="t7uJuH_INUOtXj3Et7XY-119" value="" style="line;strokeWidth=1;fillColor=none;align=left;verticalAlign=middle;spacingTop=-1;spacingLeft=3;spacingRight=3;rotatable=0;labelPosition=right;points=[];portConstraint=eastwest;" vertex="1" parent="t7uJuH_INUOtXj3Et7XY-117">
          <mxGeometry y="52" width="160" height="8" as="geometry" />
        </mxCell>
        <mxCell id="t7uJuH_INUOtXj3Et7XY-120" value="+ method(type): type" style="text;strokeColor=none;fillColor=none;align=left;verticalAlign=top;spacingLeft=4;spacingRight=4;overflow=hidden;rotatable=0;points=[[0,0.5],[1,0.5]];portConstraint=eastwest;" vertex="1" parent="t7uJuH_INUOtXj3Et7XY-117">
          <mxGeometry y="60" width="160" height="26" as="geometry" />
        </mxCell>
        <mxCell id="t7uJuH_INUOtXj3Et7XY-121" value="InfoControl" style="swimlane;fontStyle=1;align=center;verticalAlign=top;childLayout=stackLayout;horizontal=1;startSize=26;horizontalStack=0;resizeParent=1;resizeParentMax=0;resizeLast=0;collapsible=1;marginBottom=0;" vertex="1" parent="1">
          <mxGeometry x="1390" y="-1070" width="160" height="86" as="geometry" />
        </mxCell>
        <mxCell id="t7uJuH_INUOtXj3Et7XY-122" value="+ field: type" style="text;strokeColor=none;fillColor=none;align=left;verticalAlign=top;spacingLeft=4;spacingRight=4;overflow=hidden;rotatable=0;points=[[0,0.5],[1,0.5]];portConstraint=eastwest;" vertex="1" parent="t7uJuH_INUOtXj3Et7XY-121">
          <mxGeometry y="26" width="160" height="26" as="geometry" />
        </mxCell>
        <mxCell id="t7uJuH_INUOtXj3Et7XY-123" value="" style="line;strokeWidth=1;fillColor=none;align=left;verticalAlign=middle;spacingTop=-1;spacingLeft=3;spacingRight=3;rotatable=0;labelPosition=right;points=[];portConstraint=eastwest;" vertex="1" parent="t7uJuH_INUOtXj3Et7XY-121">
          <mxGeometry y="52" width="160" height="8" as="geometry" />
        </mxCell>
        <mxCell id="t7uJuH_INUOtXj3Et7XY-124" value="+ method(type): type" style="text;strokeColor=none;fillColor=none;align=left;verticalAlign=top;spacingLeft=4;spacingRight=4;overflow=hidden;rotatable=0;points=[[0,0.5],[1,0.5]];portConstraint=eastwest;" vertex="1" parent="t7uJuH_INUOtXj3Et7XY-121">
          <mxGeometry y="60" width="160" height="26" as="geometry" />
        </mxCell>
        <mxCell id="t7uJuH_INUOtXj3Et7XY-125" value="InfoView" style="swimlane;fontStyle=1;align=center;verticalAlign=top;childLayout=stackLayout;horizontal=1;startSize=26;horizontalStack=0;resizeParent=1;resizeParentMax=0;resizeLast=0;collapsible=1;marginBottom=0;" vertex="1" parent="1">
          <mxGeometry x="1590" y="-1070" width="160" height="86" as="geometry" />
        </mxCell>
        <mxCell id="t7uJuH_INUOtXj3Et7XY-126" value="+ field: type" style="text;strokeColor=none;fillColor=none;align=left;verticalAlign=top;spacingLeft=4;spacingRight=4;overflow=hidden;rotatable=0;points=[[0,0.5],[1,0.5]];portConstraint=eastwest;" vertex="1" parent="t7uJuH_INUOtXj3Et7XY-125">
          <mxGeometry y="26" width="160" height="26" as="geometry" />
        </mxCell>
        <mxCell id="t7uJuH_INUOtXj3Et7XY-127" value="" style="line;strokeWidth=1;fillColor=none;align=left;verticalAlign=middle;spacingTop=-1;spacingLeft=3;spacingRight=3;rotatable=0;labelPosition=right;points=[];portConstraint=eastwest;" vertex="1" parent="t7uJuH_INUOtXj3Et7XY-125">
          <mxGeometry y="52" width="160" height="8" as="geometry" />
        </mxCell>
        <mxCell id="t7uJuH_INUOtXj3Et7XY-128" value="+ method(type): type" style="text;strokeColor=none;fillColor=none;align=left;verticalAlign=top;spacingLeft=4;spacingRight=4;overflow=hidden;rotatable=0;points=[[0,0.5],[1,0.5]];portConstraint=eastwest;" vertex="1" parent="t7uJuH_INUOtXj3Et7XY-125">
          <mxGeometry y="60" width="160" height="26" as="geometry" />
        </mxCell>
        <mxCell id="t7uJuH_INUOtXj3Et7XY-129" value="HpBar" style="swimlane;fontStyle=1;align=center;verticalAlign=top;childLayout=stackLayout;horizontal=1;startSize=26;horizontalStack=0;resizeParent=1;resizeParentMax=0;resizeLast=0;collapsible=1;marginBottom=0;" vertex="1" parent="1">
          <mxGeometry x="1400" y="-870" width="160" height="86" as="geometry" />
        </mxCell>
        <mxCell id="t7uJuH_INUOtXj3Et7XY-130" value="+ field: type" style="text;strokeColor=none;fillColor=none;align=left;verticalAlign=top;spacingLeft=4;spacingRight=4;overflow=hidden;rotatable=0;points=[[0,0.5],[1,0.5]];portConstraint=eastwest;" vertex="1" parent="t7uJuH_INUOtXj3Et7XY-129">
          <mxGeometry y="26" width="160" height="26" as="geometry" />
        </mxCell>
        <mxCell id="t7uJuH_INUOtXj3Et7XY-131" value="" style="line;strokeWidth=1;fillColor=none;align=left;verticalAlign=middle;spacingTop=-1;spacingLeft=3;spacingRight=3;rotatable=0;labelPosition=right;points=[];portConstraint=eastwest;" vertex="1" parent="t7uJuH_INUOtXj3Et7XY-129">
          <mxGeometry y="52" width="160" height="8" as="geometry" />
        </mxCell>
        <mxCell id="t7uJuH_INUOtXj3Et7XY-132" value="+ method(type): type" style="text;strokeColor=none;fillColor=none;align=left;verticalAlign=top;spacingLeft=4;spacingRight=4;overflow=hidden;rotatable=0;points=[[0,0.5],[1,0.5]];portConstraint=eastwest;" vertex="1" parent="t7uJuH_INUOtXj3Et7XY-129">
          <mxGeometry y="60" width="160" height="26" as="geometry" />
        </mxCell>
        <mxCell id="t7uJuH_INUOtXj3Et7XY-133" value="Fade" style="swimlane;fontStyle=1;align=center;verticalAlign=top;childLayout=stackLayout;horizontal=1;startSize=26;horizontalStack=0;resizeParent=1;resizeParentMax=0;resizeLast=0;collapsible=1;marginBottom=0;" vertex="1" parent="1">
          <mxGeometry x="1850" y="-1130" width="160" height="86" as="geometry" />
        </mxCell>
        <mxCell id="t7uJuH_INUOtXj3Et7XY-134" value="+ field: type" style="text;strokeColor=none;fillColor=none;align=left;verticalAlign=top;spacingLeft=4;spacingRight=4;overflow=hidden;rotatable=0;points=[[0,0.5],[1,0.5]];portConstraint=eastwest;" vertex="1" parent="t7uJuH_INUOtXj3Et7XY-133">
          <mxGeometry y="26" width="160" height="26" as="geometry" />
        </mxCell>
        <mxCell id="t7uJuH_INUOtXj3Et7XY-135" value="" style="line;strokeWidth=1;fillColor=none;align=left;verticalAlign=middle;spacingTop=-1;spacingLeft=3;spacingRight=3;rotatable=0;labelPosition=right;points=[];portConstraint=eastwest;" vertex="1" parent="t7uJuH_INUOtXj3Et7XY-133">
          <mxGeometry y="52" width="160" height="8" as="geometry" />
        </mxCell>
        <mxCell id="t7uJuH_INUOtXj3Et7XY-136" value="+ method(type): type" style="text;strokeColor=none;fillColor=none;align=left;verticalAlign=top;spacingLeft=4;spacingRight=4;overflow=hidden;rotatable=0;points=[[0,0.5],[1,0.5]];portConstraint=eastwest;" vertex="1" parent="t7uJuH_INUOtXj3Et7XY-133">
          <mxGeometry y="60" width="160" height="26" as="geometry" />
        </mxCell>
        <mxCell id="t7uJuH_INUOtXj3Et7XY-137" value="Data" style="swimlane;fontStyle=1;align=center;verticalAlign=top;childLayout=stackLayout;horizontal=1;startSize=26;horizontalStack=0;resizeParent=1;resizeParentMax=0;resizeLast=0;collapsible=1;marginBottom=0;" vertex="1" parent="1">
          <mxGeometry x="1010" y="-896" width="160" height="86" as="geometry" />
        </mxCell>
        <mxCell id="t7uJuH_INUOtXj3Et7XY-138" value="+ field: type" style="text;strokeColor=none;fillColor=none;align=left;verticalAlign=top;spacingLeft=4;spacingRight=4;overflow=hidden;rotatable=0;points=[[0,0.5],[1,0.5]];portConstraint=eastwest;" vertex="1" parent="t7uJuH_INUOtXj3Et7XY-137">
          <mxGeometry y="26" width="160" height="26" as="geometry" />
        </mxCell>
        <mxCell id="t7uJuH_INUOtXj3Et7XY-139" value="" style="line;strokeWidth=1;fillColor=none;align=left;verticalAlign=middle;spacingTop=-1;spacingLeft=3;spacingRight=3;rotatable=0;labelPosition=right;points=[];portConstraint=eastwest;" vertex="1" parent="t7uJuH_INUOtXj3Et7XY-137">
          <mxGeometry y="52" width="160" height="8" as="geometry" />
        </mxCell>
        <mxCell id="t7uJuH_INUOtXj3Et7XY-140" value="+ method(type): type" style="text;strokeColor=none;fillColor=none;align=left;verticalAlign=top;spacingLeft=4;spacingRight=4;overflow=hidden;rotatable=0;points=[[0,0.5],[1,0.5]];portConstraint=eastwest;" vertex="1" parent="t7uJuH_INUOtXj3Et7XY-137">
          <mxGeometry y="60" width="160" height="26" as="geometry" />
        </mxCell>
      </root>
    </mxGraphModel>
  </diagram>
</mxfile>
